<svg width="97" height="171" viewBox="0 0 97 171" fill="none" xmlns="http://www.w3.org/2000/svg">
<rect y="0.125122" width="97" height="170" rx="12" fill="#1D1A1C"/>
<g clip-path="url(#clip0_272_5)">
<path d="M62.0152 86.9184C62.0052 91.4836 58.9595 95.1804 55.214 95.1697C52.8645 95.1654 50.7918 93.7016 49.5815 91.4761C50.378 93.7469 51.7309 96.6959 54.0102 100.282L42.8416 100.261C45.1642 96.6528 46.5306 93.6965 47.3297 91.419C46.1101 93.6663 44.0186 95.1453 41.6448 95.1408C37.8993 95.1301 34.8743 91.4185 34.8843 86.8533C34.8882 84.8613 35.4696 83.0346 36.4393 81.6122L36.7566 81.1745L36.7738 81.1577L48.5055 65L60.1591 81.2121L60.1736 81.2268L60.4862 81.6671C61.4476 83.0953 62.0215 84.9241 62.0176 86.916L62.0152 86.9184Z" fill="url(#paint0_linear_272_5)"/>
</g>
<g clip-path="url(#clip1_272_5)">
<path d="M19.7514 41.1498C19.7468 43.2638 18.3364 44.9757 16.602 44.9707C15.514 44.9687 14.5542 44.2909 13.9937 43.2603C14.3626 44.3118 14.9891 45.6774 16.0445 47.3382L10.8727 47.3281C11.9482 45.6575 12.581 44.2885 12.951 43.2339C12.3862 44.2745 11.4177 44.9594 10.3185 44.9573C8.58406 44.9524 7.18328 43.2336 7.18791 41.1196C7.1897 40.1972 7.45893 39.3513 7.90799 38.6927L8.05491 38.49L8.06286 38.4822L13.4955 31L18.8919 38.5074L18.8986 38.5142L19.0434 38.7181C19.4886 39.3794 19.7543 40.2263 19.7525 41.1487L19.7514 41.1498Z" fill="url(#paint1_linear_272_5)"/>
</g>
<g clip-path="url(#clip2_272_5)">
<path d="M77.1689 128.753C77.1794 126.639 78.5945 124.931 80.3289 124.94C81.4169 124.945 82.3747 125.626 82.9324 126.658C82.5664 125.605 81.9437 124.238 80.8929 122.574L86.0646 122.599C84.9845 124.267 84.348 125.634 83.975 126.687C84.5427 125.648 85.513 124.966 86.6123 124.971C88.3467 124.981 89.7427 126.704 89.7322 128.818C89.7279 129.74 89.4563 130.585 89.0054 131.243L88.8579 131.445L88.85 131.453L83.3966 138.92L78.021 131.397L78.0143 131.391L77.8701 131.186C77.4268 130.524 77.1634 129.676 77.1677 128.754L77.1689 128.753Z" fill="url(#paint2_linear_272_5)"/>
</g>
<path d="M15.2077 22.9702H11.3589L10.7302 26.4766H11.958V27.8845H8V26.4766H8.98286L12.4775 8H14.6351L18.2655 26.4766H19.4402V27.8845H14.6351V26.4766H15.8924L15.2106 22.9702H15.2077ZM13.2419 12.144L11.6599 21.3675H14.9361L13.2449 12.144H13.2419Z" fill="url(#paint3_linear_272_5)"/>
<path d="M82.2325 146.914H86.0813L86.71 143.408H85.4822V142H89.4402V143.408H88.4573L84.9627 161.885H82.8051L79.1747 143.408H78V142H82.8051V143.408H81.5478L82.2296 146.914H82.2325ZM84.1982 157.741L85.7803 148.517H82.5041L84.1953 157.741H84.1982Z" fill="url(#paint4_linear_272_5)"/>
<defs>
<linearGradient id="paint0_linear_272_5" x1="48" y1="63.5" x2="48" y2="100.5" gradientUnits="userSpaceOnUse">
<stop stop-color="#DA6407"/>
<stop offset="1" stop-color="#A62805"/>
</linearGradient>
<linearGradient id="paint1_linear_272_5" x1="13.5" y1="31" x2="13" y2="47" gradientUnits="userSpaceOnUse">
<stop stop-color="#DA6407"/>
<stop offset="1" stop-color="#A62905"/>
</linearGradient>
<linearGradient id="paint2_linear_272_5" x1="83.5" y1="139" x2="83.5" y2="122.5" gradientUnits="userSpaceOnUse">
<stop stop-color="#DA6407"/>
<stop offset="1" stop-color="#A62905"/>
</linearGradient>
<linearGradient id="paint3_linear_272_5" x1="13.7201" y1="8" x2="13.7201" y2="27.8845" gradientUnits="userSpaceOnUse">
<stop stop-color="#D96307"/>
<stop offset="1" stop-color="#A62905"/>
</linearGradient>
<linearGradient id="paint4_linear_272_5" x1="84" y1="162" x2="84" y2="142" gradientUnits="userSpaceOnUse">
<stop stop-color="#D96307"/>
<stop offset="1" stop-color="#A62905"/>
</linearGradient>
<clipPath id="clip0_272_5">
<rect width="28.7685" height="29.0127" fill="white" transform="translate(28 85.178) rotate(-44.5389)"/>
</clipPath>
<clipPath id="clip1_272_5">
<rect width="13.3218" height="13.4349" fill="white" transform="translate(4 40.3439) rotate(-44.5389)"/>
</clipPath>
<clipPath id="clip2_272_5">
<rect width="13.3218" height="13.4349" fill="white" transform="translate(92.918 129.602) rotate(135.62)"/>
</clipPath>
</defs>
</svg>
