<svg width="97" height="171" viewBox="0 0 97 171" fill="none" xmlns="http://www.w3.org/2000/svg">
<rect x="0.000488281" y="0.125122" width="97" height="170" rx="12" fill="#1D1A1C"/>
<path d="M15.2077 22.9702H11.3589L10.7302 26.4766H11.958V27.8845H8V26.4766H8.98286L12.4775 8H14.6351L18.2655 26.4766H19.4402V27.8845H14.6351V26.4766H15.8924L15.2106 22.9702H15.2077ZM13.2419 12.144L11.6599 21.3675H14.9361L13.2449 12.144H13.2419Z" fill="url(#paint0_linear_271_4)"/>
<path d="M82.2325 146.914H86.0813L86.71 143.408H85.4822V142H89.4402V143.408H88.4573L84.9627 161.885H82.8051L79.1747 143.408H78V142H82.8051V143.408H81.5478L82.2296 146.914H82.2325ZM84.1982 157.741L85.7803 148.517H82.5041L84.1953 157.741H84.1982Z" fill="url(#paint1_linear_271_4)"/>
<g clip-path="url(#clip0_271_4)">
<path d="M64.643 82.1361C64.6768 84.4585 64.035 86.5982 62.9368 88.2782L62.5753 88.7958L62.5548 88.8167L49.2063 107.879L35.3033 89.2191L35.2824 89.1986L34.9082 88.6909C33.7608 87.0439 33.0552 84.9228 33.0244 82.6033C32.9445 77.2789 36.4199 72.9138 40.79 72.8519C45.1571 72.7869 48.7553 77.0497 48.8352 82.3682C48.7583 77.0467 52.2336 72.6816 56.5978 72.6197C60.9649 72.5548 64.5661 76.8146 64.643 82.1361Z" fill="url(#paint2_linear_271_4)"/>
</g>
<path d="M20.7345 34.7198C20.7491 35.7255 20.4713 36.652 19.9957 37.3795L19.8392 37.6036L19.8303 37.6126L14.0501 45.8672L8.02986 37.7869L8.02082 37.778L7.85879 37.5582C7.36195 36.845 7.05639 35.9265 7.04306 34.9221C7.00848 32.6166 8.51338 30.7264 10.4057 30.6996C12.2967 30.6714 13.8549 32.5173 13.8894 34.8203C13.8561 32.516 15.361 30.6259 17.2508 30.599C19.1418 30.5709 20.7012 32.4155 20.7345 34.7198Z" fill="url(#paint3_linear_271_4)"/>
<path d="M77.1067 134.993C77.1149 133.987 77.4137 133.067 77.9057 132.351L78.0673 132.13L78.0763 132.121L84.0423 124L89.8777 132.215L89.8865 132.224L90.0435 132.447C90.524 133.172 90.8087 134.097 90.7992 135.101C90.7815 137.407 89.2341 139.262 87.3416 139.246C85.4505 139.232 83.9346 137.351 83.9523 135.048C83.9333 137.352 82.3859 139.208 80.496 139.192C78.6048 139.177 77.0877 137.297 77.1067 134.993Z" fill="url(#paint4_linear_271_4)"/>
<defs>
<linearGradient id="paint0_linear_271_4" x1="13.7201" y1="8" x2="13.7201" y2="27.8845" gradientUnits="userSpaceOnUse">
<stop stop-color="#DA6407"/>
<stop offset="1" stop-color="#A62805"/>
</linearGradient>
<linearGradient id="paint1_linear_271_4" x1="84" y1="162" x2="84" y2="141" gradientUnits="userSpaceOnUse">
<stop stop-color="#DA6407"/>
<stop offset="1" stop-color="#A62805"/>
</linearGradient>
<linearGradient id="paint2_linear_271_4" x1="49" y1="71.5" x2="49" y2="109.5" gradientUnits="userSpaceOnUse">
<stop stop-color="#DB6507"/>
<stop offset="1" stop-color="#A72905"/>
</linearGradient>
<linearGradient id="paint3_linear_271_4" x1="14" y1="29.5" x2="14" y2="46" gradientUnits="userSpaceOnUse">
<stop stop-color="#DA6407"/>
<stop offset="1" stop-color="#A62805"/>
</linearGradient>
<linearGradient id="paint4_linear_271_4" x1="84" y1="124" x2="84" y2="139" gradientUnits="userSpaceOnUse">
<stop stop-color="#A72905"/>
<stop offset="1" stop-color="#DA6307"/>
</linearGradient>
<clipPath id="clip0_271_4">
<rect width="32.5128" height="32.3665" fill="white" transform="translate(48.6694 62) rotate(44.4585)"/>
</clipPath>
</defs>
</svg>
