<svg width="97" height="171" viewBox="0 0 97 171" fill="none" xmlns="http://www.w3.org/2000/svg">
<rect x="-0.000976562" y="0.125122" width="97" height="170" rx="12" fill="#1D1A1C"/>
<g clip-path="url(#clip0_272_6)">
<path d="M64 85.4214C64 85.4214 51.1935 88.3786 48.5914 103C45.8346 88.4 33 85.5786 33 85.5786C33 85.5786 45.8065 82.6214 48.4086 68C51.1654 82.6 64 85.4214 64 85.4214Z" fill="url(#paint0_linear_272_6)"/>
</g>
<g clip-path="url(#clip1_272_6)">
<path d="M22 40.4573C22 40.4573 15.3902 42.0627 14.0472 50C12.6243 42.0743 6 40.5427 6 40.5427C6 40.5427 12.6098 38.9373 13.9528 31C15.3757 38.9257 22 40.4573 22 40.4573Z" fill="url(#paint1_linear_272_6)"/>
</g>
<g clip-path="url(#clip2_272_6)">
<path d="M92 129.457C92 129.457 85.3902 131.063 84.0472 139C82.6243 131.074 76 129.543 76 129.543C76 129.543 82.6098 127.937 83.9528 120C85.3757 127.926 92 129.457 92 129.457Z" fill="url(#paint2_linear_272_6)"/>
</g>
<path d="M15.2077 22.9702H11.3589L10.7302 26.4766H11.958V27.8845H8V26.4766H8.98286L12.4775 8H14.6351L18.2655 26.4766H19.4402V27.8845H14.6351V26.4766H15.8924L15.2106 22.9702H15.2077ZM13.2419 12.144L11.6599 21.3675H14.9361L13.2449 12.144H13.2419Z" fill="url(#paint3_linear_272_6)"/>
<path d="M82.2325 146.914H86.0813L86.71 143.408H85.4822V142H89.4402V143.408H88.4573L84.9627 161.885H82.8051L79.1747 143.408H78V142H82.8051V143.408H81.5478L82.2296 146.914H82.2325ZM84.1982 157.741L85.7803 148.517H82.5041L84.1953 157.741H84.1982Z" fill="url(#paint4_linear_272_6)"/>
<defs>
<linearGradient id="paint0_linear_272_6" x1="48.5" y1="68" x2="48.5" y2="103" gradientUnits="userSpaceOnUse">
<stop stop-color="#DA6407"/>
<stop offset="1" stop-color="#A62805"/>
</linearGradient>
<linearGradient id="paint1_linear_272_6" x1="14" y1="31" x2="14" y2="50" gradientUnits="userSpaceOnUse">
<stop stop-color="#DA6407"/>
<stop offset="1" stop-color="#A62805"/>
</linearGradient>
<linearGradient id="paint2_linear_272_6" x1="84" y1="139" x2="84" y2="120" gradientUnits="userSpaceOnUse">
<stop stop-color="#DA6407"/>
<stop offset="1" stop-color="#A62805"/>
</linearGradient>
<linearGradient id="paint3_linear_272_6" x1="13.7201" y1="8" x2="13.7201" y2="27.8845" gradientUnits="userSpaceOnUse">
<stop stop-color="#DA6407"/>
<stop offset="1" stop-color="#A62805"/>
</linearGradient>
<linearGradient id="paint4_linear_272_6" x1="84" y1="162" x2="84" y2="142" gradientUnits="userSpaceOnUse">
<stop stop-color="#DA6407"/>
<stop offset="1" stop-color="#A62805"/>
</linearGradient>
<clipPath id="clip0_272_6">
<rect width="31" height="35" fill="white" transform="translate(33 68)"/>
</clipPath>
<clipPath id="clip1_272_6">
<rect width="16" height="19" fill="white" transform="translate(6 31)"/>
</clipPath>
<clipPath id="clip2_272_6">
<rect width="16" height="19" fill="white" transform="translate(76 120)"/>
</clipPath>
</defs>
</svg>
