<svg width="97" height="171" viewBox="0 0 97 171" fill="none" xmlns="http://www.w3.org/2000/svg">
<rect y="0.125122" width="97" height="170" rx="12" fill="#1D1A1C"/>
<path d="M15.2077 22.9702H11.3589L10.7302 26.4766H11.958V27.8845H8V26.4766H8.98286L12.4775 8H14.6351L18.2655 26.4766H19.4402V27.8845H14.6351V26.4766H15.8924L15.2106 22.9702H15.2077ZM13.2419 12.144L11.6599 21.3675H14.9361L13.2449 12.144H13.2419Z" fill="url(#paint0_linear_272_7)"/>
<path d="M82.2325 146.914H86.0813L86.71 143.408H85.4822V142H89.4402V143.408H88.4573L84.9627 161.885H82.8051L79.1747 143.408H78V142H82.8051V143.408H81.5478L82.2296 146.914H82.2325ZM84.1982 157.741L85.7803 148.517H82.5041L84.1953 157.741H84.1982Z" fill="url(#paint1_linear_272_7)"/>
<path d="M58.4212 77.8654C57.2255 77.8673 56.0937 78.1521 55.0962 78.6623L55.0933 78.6652C54.6053 78.8666 53.8282 79.1784 52.8524 79.5638C53.5256 77.8049 54.0902 76.4057 54.3918 75.6671C54.9086 74.6659 55.1999 73.5286 55.1981 72.327C55.1912 68.2918 51.9209 65.0222 47.8886 65.0262C43.8535 65.0272 40.5838 68.2975 40.5878 72.3298C40.5897 73.5255 40.8745 74.6573 41.3847 75.6548L41.3876 75.6577C41.6882 76.394 42.2495 77.7847 42.9234 79.5374C41.9818 79.1696 41.2344 78.865 40.7623 78.6709C40.7623 78.6709 40.7623 78.6709 40.7594 78.668C39.7611 78.1599 38.6324 77.8716 37.4338 77.8706C33.3987 77.8716 30.129 81.142 30.133 85.1742C30.134 89.2094 33.4044 92.479 37.4366 92.4751C38.641 92.4762 39.7758 92.1827 40.7792 91.6667C41.6879 91.2952 43.5782 90.5326 45.9091 89.6553C44.2668 96.9518 40.9358 100.795 40.9358 100.795L46.5653 100.793L46.5644 90.1306L46.5653 100.793L55.2057 100.791C55.2057 100.791 51.9061 96.9918 50.2514 89.7681C52.4479 90.5943 54.215 91.3053 55.084 91.6636C56.0851 92.1804 57.2225 92.4717 58.424 92.4699C62.4591 92.4689 65.7259 89.1955 65.7248 85.1662C65.7238 81.1311 62.4535 77.8614 58.4212 77.8654ZM49.5717 99.5767L49.5694 99.5214L49.5717 99.5767Z" fill="url(#paint2_linear_272_7)"/>
<path d="M18.7416 37.4726C18.1784 37.4735 17.6454 37.6077 17.1756 37.848L17.1742 37.8493C16.9444 37.9442 16.5783 38.091 16.1187 38.2725C16.4358 37.4442 16.7017 36.7851 16.8438 36.4372C17.0872 35.9657 17.2244 35.43 17.2235 34.8641C17.2203 32.9635 15.68 31.4235 13.7808 31.4253C11.8802 31.4258 10.3402 32.9661 10.3421 34.8653C10.343 35.4285 10.4771 35.9616 10.7174 36.4314L10.7188 36.4328C10.8604 36.7796 11.1248 37.4346 11.4422 38.2601C10.9987 38.0869 10.6466 37.9434 10.4243 37.852C10.4243 37.852 10.4243 37.852 10.4229 37.8506C9.95269 37.6113 9.42109 37.4756 8.85655 37.4751C6.95599 37.4755 5.41599 39.0159 5.41785 40.9151C5.41832 42.8157 6.95867 44.3557 8.85787 44.3538C9.42516 44.3543 9.95965 44.2161 10.4322 43.9731C10.8602 43.7981 11.7506 43.4389 12.8484 43.0257C12.0749 46.4624 10.506 48.2723 10.506 48.2723L13.1575 48.2716L13.1571 43.2496L13.1575 48.2716L17.2272 48.2707C17.2272 48.2707 15.673 46.4812 14.8936 43.0788C15.9282 43.4679 16.7605 43.8029 17.1698 43.9716C17.6413 44.215 18.177 44.3522 18.743 44.3513C20.6435 44.3509 22.1822 42.8091 22.1817 40.9113C22.1812 39.0108 20.6408 37.4708 18.7416 37.4726ZM14.5735 47.6987L14.5724 47.6726L14.5735 47.6987Z" fill="url(#paint3_linear_272_7)"/>
<path d="M78.8589 133.121C79.422 133.124 79.9561 132.994 80.4277 132.757L80.4291 132.756C80.6597 132.663 81.0268 132.519 81.4878 132.341C81.1644 133.167 80.8935 133.824 80.7488 134.17C80.5018 134.64 80.3605 135.175 80.357 135.741C80.3458 137.641 81.8744 139.193 83.7735 139.205C85.674 139.219 87.2257 137.691 87.2383 135.792C87.2417 135.229 87.1116 134.694 86.8749 134.223L86.8736 134.221C86.7346 133.874 86.4752 133.217 86.1641 132.389C86.6063 132.565 86.9572 132.711 87.1789 132.805C87.1789 132.805 87.1789 132.805 87.1802 132.806C87.6486 133.049 88.1792 133.189 88.7437 133.193C90.6442 133.207 92.1959 131.679 92.2085 129.78C92.2225 127.879 90.6939 126.327 88.7947 126.315C88.2275 126.31 87.6919 126.444 87.2175 126.684C86.7882 126.855 85.8951 127.208 84.7942 127.613C85.5938 124.182 87.1765 122.384 87.1765 122.384L84.5251 122.364L84.4872 127.386L84.5251 122.364L80.4555 122.334C80.4555 122.334 81.996 124.136 82.7494 127.544C81.7179 127.147 80.8881 126.806 80.4801 126.634C80.0105 126.387 79.4758 126.245 78.9099 126.242C77.0094 126.228 75.4591 127.758 75.4451 129.656C75.4311 131.556 76.9597 133.108 78.8589 133.121ZM83.1047 122.927L83.1056 122.953L83.1047 122.927Z" fill="url(#paint4_linear_272_7)"/>
<defs>
<linearGradient id="paint0_linear_272_7" x1="13.7201" y1="8" x2="13.7201" y2="27.8845" gradientUnits="userSpaceOnUse">
<stop stop-color="#DA6407"/>
<stop offset="1" stop-color="#A62905"/>
</linearGradient>
<linearGradient id="paint1_linear_272_7" x1="84" y1="162" x2="84" y2="142" gradientUnits="userSpaceOnUse">
<stop stop-color="#DA6407"/>
<stop offset="1" stop-color="#A62905"/>
</linearGradient>
<linearGradient id="paint2_linear_272_7" x1="48" y1="65" x2="48" y2="100.5" gradientUnits="userSpaceOnUse">
<stop stop-color="#DA6407"/>
<stop offset="1" stop-color="#A62805"/>
</linearGradient>
<linearGradient id="paint3_linear_272_7" x1="14" y1="31.5" x2="14" y2="48" gradientUnits="userSpaceOnUse">
<stop stop-color="#DA6407"/>
<stop offset="1" stop-color="#A62805"/>
</linearGradient>
<linearGradient id="paint4_linear_272_7" x1="84" y1="139" x2="84" y2="122" gradientUnits="userSpaceOnUse">
<stop stop-color="#DA6407"/>
<stop offset="1" stop-color="#A62805"/>
</linearGradient>
</defs>
</svg>
