<svg width="317" height="318" viewBox="0 0 317 318" fill="none" xmlns="http://www.w3.org/2000/svg">
<g clip-path="url(#clip0_97_3763)">
<path d="M158.489 317.104C246.021 317.104 316.979 246.146 316.979 158.614C316.979 71.0832 246.021 0.125122 158.489 0.125122C70.9581 0.125122 0 71.0832 0 158.614C0 246.146 70.9581 317.104 158.489 317.104Z" fill="#1D1A1C"/>
<path d="M158.489 270.533C220.299 270.533 270.408 220.424 270.408 158.614C270.408 96.8042 220.299 46.6955 158.489 46.6955C96.679 46.6955 46.5703 96.8042 46.5703 158.614C46.5703 220.424 96.679 270.533 158.489 270.533Z" fill="#1D1A1C" stroke="url(#paint0_linear_97_3763)" stroke-width="5" stroke-miterlimit="10"/>
<path fill-rule="evenodd" clip-rule="evenodd" d="M131.523 166.351L58.4631 208.51C58.4631 208.51 61.575 215.032 66.3279 221.852L137.742 180.844L96.7424 251.82C96.7424 251.82 102.71 255.827 110.213 259.45L150.753 189.218V270.107C150.753 270.107 157.914 270.725 166.205 270.107V187.422L207.554 259.045V259.024C207.554 259.024 214.055 255.976 220.939 251.287L179.625 179.732L251.167 221.034L251.161 221.043H251.182L251.167 221.034C251.345 220.779 255.356 214.992 258.898 207.658L187.356 166.351H269.982C269.982 166.351 270.6 159.19 269.982 150.899H189.89L259.559 110.893C256.021 103.348 251.715 96.996 251.715 96.996L180.149 138.293L221.641 66.4111C214.799 61.6794 208.363 58.5889 208.363 58.5889L166.205 131.569V47.1435C157.936 46.568 150.753 47.1435 150.753 47.1435V129.726L109.446 58.1838C101.944 61.7858 96.0613 65.9207 96.0613 65.9207L137.384 137.499L65.7951 96.1651C61.0847 103.028 58.0581 109.55 58.0581 109.55L129.681 150.899H46.9967C46.3999 159.169 46.9967 166.351 46.9967 166.351H131.523Z" fill="url(#paint1_linear_97_3763)"/>
<path d="M64 159C64 106.525 106.302 64 158.5 64C210.698 64 253 106.525 253 159C253 211.475 210.698 254 158.5 254C106.302 254 64 211.475 64 159Z" fill="#1D1A1C" stroke="url(#paint2_linear_97_3763)" stroke-width="5" stroke-miterlimit="10"/>
<path fill-rule="evenodd" clip-rule="evenodd" d="M179.461 34.9087C172.641 33.7365 165.628 33.1397 158.488 33.1397C151.348 33.1397 144.336 33.7578 137.516 34.9087L135.999 1.62452C162.045 -2.02013 180.999 1.62479 180.999 1.62479L179.461 34.9087ZM267.722 96.8041C271.239 103.028 274.159 109.422 276.482 115.944L305.917 100.811C305.917 100.811 299.949 82.9927 283.985 62.0839L255.872 79.412C260.241 84.7831 264.206 90.5805 267.722 96.8041ZM254.852 239.304C259.307 234.018 263.378 228.285 267.001 222.125C270.625 215.965 273.651 209.614 276.102 203.156L305.259 218.8C295.502 243.125 283.002 257.125 283.002 257.125L254.852 239.304ZM137.278 282.125C144.099 283.297 151.111 283.894 158.251 283.894C165.391 283.894 172.403 283.276 179.224 282.125L180.499 316.125C154.454 319.77 135.999 315.625 135.999 315.625L137.278 282.125ZM50.1723 95.2695C53.7957 89.1098 57.8453 83.3551 62.2999 78.0693L34.4214 60.251C34.4214 60.251 21.5388 74.3273 11.5 98.625L41.0926 114.239C43.5437 107.781 46.5703 101.429 50.1723 95.2482V95.2695ZM41.0506 202.904C43.5017 209.384 46.507 215.735 50.1303 221.895C53.7537 228.055 57.8033 233.809 62.2579 239.095L34 257.125C17.6736 236.493 11.5 218.625 11.5 218.625L41.0506 202.904Z" fill="url(#paint3_linear_97_3763)"/>
</g>
<defs>
<linearGradient id="paint0_linear_97_3763" x1="158" y1="270.125" x2="158" y2="47.1247" gradientUnits="userSpaceOnUse">
<stop stop-color="#A82A06"/>
<stop offset="1" stop-color="#DB6508"/>
</linearGradient>
<linearGradient id="paint1_linear_97_3763" x1="159.012" y1="47.125" x2="159.012" y2="270.125" gradientUnits="userSpaceOnUse">
<stop stop-color="#DC6508"/>
<stop offset="1" stop-color="#A82A06"/>
</linearGradient>
<linearGradient id="paint2_linear_97_3763" x1="158.042" y1="64.2238" x2="158.042" y2="254.333" gradientUnits="userSpaceOnUse">
<stop stop-color="#DB6508"/>
<stop offset="1" stop-color="#A82A06"/>
</linearGradient>
<linearGradient id="paint3_linear_97_3763" x1="158.814" y1="353.565" x2="158.814" y2="-41.7395" gradientUnits="userSpaceOnUse">
<stop stop-color="#A82A06"/>
<stop offset="1" stop-color="#DB6508"/>
</linearGradient>
<clipPath id="clip0_97_3763">
<rect width="317" height="317" fill="white" transform="translate(0 0.125)"/>
</clipPath>
</defs>
</svg>
