<svg width="76" height="475" viewBox="0 0 76 475" fill="none" xmlns="http://www.w3.org/2000/svg">
<path d="M0.875 406.5H75.875V449.5C75.875 463.307 64.6821 474.5 50.875 474.5H25.875C12.0679 474.5 0.875 463.307 0.875 449.5V406.5Z" fill="#AC2F06"/>
<path d="M0.875 338.499H75.875V406.499H0.875V338.499Z" fill="#CC5407"/>
<path d="M75.875 135.5L0.875 135.5L0.875 67.4995L75.875 67.4995L75.875 135.5Z" fill="#CC5407"/>
<path d="M75.875 67.5002L0.875 67.5002L0.875 25.5002C0.875 11.6931 12.0679 0.500237 25.875 0.500237L50.875 0.500237C64.6821 0.500237 75.875 11.6931 75.875 25.5002L75.875 67.5002Z" fill="#AC2F06"/>
<path fill-rule="evenodd" clip-rule="evenodd" d="M75.875 135.5H0.875V338.5H75.875V135.5ZM65.875 140.5H10.875V333.5H65.875V140.5Z" fill="#CC5407"/>
</svg>
