<svg width="220" height="97" viewBox="0 0 220 97" fill="none" xmlns="http://www.w3.org/2000/svg">
<path d="M0 0.674196H5.99001V19.8888H12.4157V0.674196H18.4057V47.8679H12.4157V26.6308H5.99001V47.8679H0V0.674196Z" fill="white"/>
<path d="M28.2032 48.5421C25.299 48.5421 23.1026 47.5308 21.6142 45.5083C20.1258 43.4407 19.3816 40.4967 19.3816 36.6763V33.9795H25.0449V37.2156C25.0449 40.272 26.0795 41.8002 28.1488 41.8002C29.1653 41.8002 29.9276 41.4406 30.4359 40.7215C30.9804 39.9574 31.2527 38.7438 31.2527 37.0808C31.2527 35.1032 30.8897 33.3727 30.1636 31.8895C29.4375 30.3613 28.0943 28.541 26.134 26.4285C23.6653 23.7317 21.941 21.3046 20.9608 19.1472C19.9806 16.9448 19.4905 14.4727 19.4905 11.731C19.4905 8.00046 20.2529 5.12389 21.7776 3.1013C23.3023 1.03377 25.5168 0 28.421 0C31.289 0 33.449 1.03377 34.9011 3.1013C36.3896 5.12389 37.1338 8.04541 37.1338 11.8659V13.821H31.4705V11.3939C31.4705 9.77585 31.2164 8.60724 30.7081 7.8881C30.1999 7.12401 29.4557 6.74196 28.4755 6.74196C26.4788 6.74196 25.4805 8.24767 25.4805 11.2591C25.4805 12.967 25.8435 14.5626 26.5696 16.0459C27.332 17.5291 28.6933 19.327 30.6537 21.4394C33.1586 24.1362 34.883 26.5858 35.8269 28.7882C36.7708 30.9906 37.2427 33.575 37.2427 36.5414C37.2427 40.4068 36.4622 43.3733 34.9011 45.4408C33.3764 47.5084 31.1438 48.5421 28.2032 48.5421Z" fill="white"/>
<path d="M38.2267 0.674196H54.5631V7.41616H44.2167V19.8888H52.4394V26.6308H44.2167V41.126H54.5631V47.8679H38.2267V0.674196Z" fill="white"/>
<path d="M66.458 0.674196H74.5717L80.7796 47.8679H74.7896L73.7005 38.4966V38.6315H66.8937L65.8046 47.8679H60.2502L66.458 0.674196ZM72.9926 32.2266L70.3243 8.89939H70.2154L67.6016 32.2266H72.9926Z" fill="white"/>
<path d="M81.2352 0.674196H90.1113C93.1971 0.674196 95.4479 1.57312 96.8637 3.37098C98.2795 5.12389 98.9874 7.84315 98.9874 11.5288V14.4278C98.9874 19.327 97.6805 22.4283 95.0667 23.7317V23.8665C96.5188 24.4059 97.5353 25.5071 98.1161 27.1701C98.7333 28.8331 99.0419 31.058 99.0419 33.8447V42.1373C99.0419 43.4857 99.0782 44.5869 99.1508 45.4408C99.2234 46.2499 99.4049 47.0589 99.6953 47.8679H93.5964C93.3786 47.1039 93.2334 46.3847 93.1608 45.7105C93.0882 45.0363 93.0518 43.8228 93.0518 42.0699V33.4401C93.0518 31.2827 92.7614 29.777 92.1806 28.923C91.636 28.069 90.674 27.642 89.2945 27.642H87.2252V47.8679H81.2352V0.674196ZM89.4034 20.9001C90.6014 20.9001 91.4908 20.518 92.0717 19.754C92.6888 18.9899 92.9974 17.7089 92.9974 15.911V12.2704C92.9974 10.5624 92.7433 9.32638 92.235 8.5623C91.7631 7.79821 91.0007 7.41616 89.9479 7.41616H87.2252V20.9001H89.4034Z" fill="white"/>
<path d="M105.324 7.41616H99.0619V0.674196H117.576V7.41616H111.314V47.8679H105.324V7.41616Z" fill="white"/>
<path d="M128.926 0.674196H137.039L143.247 47.8679H137.257L136.168 38.4966V38.6315H129.361L128.272 47.8679H122.718L128.926 0.674196ZM135.46 32.2266L132.792 8.89939H132.683L130.069 32.2266H135.46Z" fill="white"/>
<path d="M143.703 0.674196H151.217L157.044 28.923H157.153V0.674196H162.49V47.8679H156.336L149.148 13.4165H149.039V47.8679H143.703V0.674196Z" fill="white"/>
<path d="M164.491 0.674196H173.64C176.616 0.674196 178.849 1.66302 180.337 3.64066C181.826 5.6183 182.57 8.51735 182.57 12.3378V36.2043C182.57 40.0248 181.826 42.9238 180.337 44.9015C178.849 46.8791 176.616 47.8679 173.64 47.8679H164.491V0.674196ZM173.531 41.126C174.511 41.126 175.255 40.7664 175.763 40.0473C176.308 39.3281 176.58 38.1595 176.58 36.5414V12.0007C176.58 10.3826 176.308 9.21402 175.763 8.49487C175.255 7.77573 174.511 7.41616 173.531 7.41616H170.481V41.126H173.531Z" fill="white"/>
<path d="M0 49.1321H9.14837C12.1252 49.1321 14.3579 50.1209 15.8463 52.0985C17.3347 54.0762 18.0789 56.9752 18.0789 60.7957V84.6622C18.0789 88.4826 17.3347 91.3817 15.8463 93.3593C14.3579 95.337 12.1252 96.3258 9.14837 96.3258H0V49.1321ZM9.03946 89.5838C10.0196 89.5838 10.7639 89.2243 11.2721 88.5051C11.8166 87.786 12.0889 86.6174 12.0889 84.9993V60.4586C12.0889 58.8405 11.8166 57.6719 11.2721 56.9527C10.7639 56.2336 10.0196 55.874 9.03946 55.874H5.99001V89.5838H9.03946Z" fill="white"/>
<path d="M19.6717 49.1321H36.0081V55.874H25.6617V68.3466H33.8844V75.0886H25.6617V89.5838H36.0081V96.3258H19.6717V49.1321Z" fill="white"/>
<path d="M44.897 97C41.9927 97 39.7964 95.9887 38.308 93.9661C36.8195 91.8986 36.0753 88.9546 36.0753 85.1341V82.4374H41.7386V85.6735C41.7386 88.7299 42.7732 90.258 44.8425 90.258C45.859 90.258 46.6214 89.8985 47.1296 89.1793C47.6742 88.4152 47.9464 87.2017 47.9464 85.5387C47.9464 83.561 47.5834 81.8306 46.8573 80.3474C46.1313 78.8192 44.7881 76.9988 42.8277 74.8864C40.3591 72.1896 38.6347 69.7625 37.6545 67.605C36.6743 65.4027 36.1842 62.9306 36.1842 60.1889C36.1842 56.4583 36.9466 53.5818 38.4713 51.5592C39.9961 49.4916 42.2105 48.4579 45.1148 48.4579C47.9827 48.4579 50.1428 49.4916 51.5949 51.5592C53.0833 53.5818 53.8275 56.5033 53.8275 60.3237V62.2789H48.1642V59.8518C48.1642 58.2337 47.9101 57.0651 47.4019 56.346C46.8936 55.5819 46.1494 55.1998 45.1692 55.1998C43.1726 55.1998 42.1742 56.7055 42.1742 59.7169C42.1742 61.4249 42.5373 63.0205 43.2633 64.5037C44.0257 65.987 45.3871 67.7848 47.3474 69.8973C49.8523 72.5941 51.5767 75.0437 52.5206 77.246C53.4645 79.4484 53.9364 82.0328 53.9364 84.9993C53.9364 88.8647 53.1559 91.8312 51.5949 93.8987C50.0702 95.9662 47.8375 97 44.897 97Z" fill="white"/>
<path d="M54.9204 49.1321H60.9105V96.3258H54.9204V49.1321Z" fill="white"/>
<path d="M71.441 97C68.5368 97 66.3223 95.9887 64.7976 93.9661C63.2728 91.8986 62.5105 88.9546 62.5105 85.1341V60.3237C62.5105 56.5033 63.2728 53.5818 64.7976 51.5592C66.3223 49.4916 68.5368 48.4579 71.441 48.4579C74.3453 48.4579 76.5598 49.4916 78.0845 51.5592C79.6092 53.5818 80.3716 56.5033 80.3716 60.3237V64.3689H74.7083V59.8518C74.7083 56.7505 73.6737 55.1998 71.6044 55.1998C69.5351 55.1998 68.5005 56.7505 68.5005 59.8518V85.6735C68.5005 88.7299 69.5351 90.258 71.6044 90.258C73.6737 90.258 74.7083 88.7299 74.7083 85.6735V76.437H71.7133V69.695H80.3716V85.1341C80.3716 88.9546 79.6092 91.8986 78.0845 93.9661C76.5598 95.9887 74.3453 97 71.441 97Z" fill="white"/>
<path d="M81.767 49.1321H89.2817L95.1084 77.3809H95.2173V49.1321H100.554V96.3258H94.4005L87.2124 61.8744H87.1035V96.3258H81.767V49.1321Z" fill="white"/>
<path d="M116.613 97C113.709 97 111.513 95.9887 110.024 93.9661C108.536 91.8986 107.792 88.9546 107.792 85.1341V82.4374H113.455V85.6735C113.455 88.7299 114.49 90.258 116.559 90.258C117.575 90.258 118.338 89.8985 118.846 89.1793C119.39 88.4152 119.663 87.2017 119.663 85.5387C119.663 83.561 119.3 81.8306 118.574 80.3474C117.848 78.8192 116.504 76.9988 114.544 74.8864C112.075 72.1896 110.351 69.7625 109.371 67.605C108.391 65.4027 107.901 62.9306 107.901 60.1889C107.901 56.4583 108.663 53.5818 110.188 51.5592C111.712 49.4916 113.927 48.4579 116.831 48.4579C119.699 48.4579 121.859 49.4916 123.311 51.5592C124.8 53.5818 125.544 56.5033 125.544 60.3237V62.2789H119.881V59.8518C119.881 58.2337 119.626 57.0651 119.118 56.346C118.61 55.5819 117.866 55.1998 116.886 55.1998C114.889 55.1998 113.891 56.7055 113.891 59.7169C113.891 61.4249 114.254 63.0205 114.98 64.5037C115.742 65.987 117.103 67.7848 119.064 69.8973C121.569 72.5941 123.293 75.0437 124.237 77.246C125.181 79.4484 125.653 82.0328 125.653 84.9993C125.653 88.8647 124.872 91.8312 123.311 93.8987C121.786 95.9662 119.554 97 116.613 97Z" fill="white"/>
<path d="M135.077 97C132.209 97 130.013 95.9887 128.488 93.9661C127 91.9435 126.256 89.0894 126.256 85.4038V60.054C126.256 56.3684 127 53.5143 128.488 51.4917C130.013 49.4692 132.209 48.4579 135.077 48.4579C137.945 48.4579 140.123 49.4692 141.612 51.4917C143.136 53.5143 143.899 56.3684 143.899 60.054V65.0431H138.236V59.5821C138.236 56.6606 137.237 55.1998 135.241 55.1998C133.244 55.1998 132.246 56.6606 132.246 59.5821V85.9432C132.246 88.8197 133.244 90.258 135.241 90.258C137.237 90.258 138.236 88.8197 138.236 85.9432V78.7293H143.899V85.4038C143.899 89.0894 143.136 91.9435 141.612 93.9661C140.123 95.9887 137.945 97 135.077 97Z" fill="white"/>
<path d="M145.032 49.1321H151.022V68.3466H157.448V49.1321H163.438V96.3258H157.448V75.0886H151.022V96.3258H145.032V49.1321Z" fill="white"/>
<path d="M174.107 97C171.166 97 168.915 95.9662 167.354 93.8987C165.793 91.8312 165.013 88.9096 165.013 85.1341V60.3237C165.013 56.5482 165.793 53.6267 167.354 51.5592C168.915 49.4916 171.166 48.4579 174.107 48.4579C177.047 48.4579 179.298 49.4916 180.859 51.5592C182.42 53.6267 183.201 56.5482 183.201 60.3237V85.1341C183.201 88.9096 182.42 91.8312 180.859 93.8987C179.298 95.9662 177.047 97 174.107 97ZM174.107 90.258C176.176 90.258 177.211 88.7074 177.211 85.6061V59.8518C177.211 56.7505 176.176 55.1998 174.107 55.1998C172.037 55.1998 171.003 56.7505 171.003 59.8518V85.6061C171.003 88.7074 172.037 90.258 174.107 90.258Z" fill="white"/>
<path d="M193.459 97C190.519 97 188.268 95.9662 186.707 93.8987C185.146 91.8312 184.365 88.9096 184.365 85.1341V60.3237C184.365 56.5482 185.146 53.6267 186.707 51.5592C188.268 49.4916 190.519 48.4579 193.459 48.4579C196.4 48.4579 198.651 49.4916 200.212 51.5592C201.773 53.6267 202.553 56.5482 202.553 60.3237V85.1341C202.553 88.9096 201.773 91.8312 200.212 93.8987C198.651 95.9662 196.4 97 193.459 97ZM193.459 90.258C195.529 90.258 196.563 88.7074 196.563 85.6061V59.8518C196.563 56.7505 195.529 55.1998 193.459 55.1998C191.39 55.1998 190.355 56.7505 190.355 59.8518V85.6061C190.355 88.7074 191.39 90.258 193.459 90.258Z" fill="white"/>
<path d="M204.154 49.1321H210.144V89.5838H220V96.3258H204.154V49.1321Z" fill="white"/>
</svg>
