<svg width="160" height="57" viewBox="0 0 160 57" fill="none" xmlns="http://www.w3.org/2000/svg">
<path d="M144.906 9.78016L99.7862 27.5633L93.2005 14.7201H75.4174V5.08685H52.4458V14.7201H46.0242V7.05648C46.0242 3.50994 43.1393 0.625 39.5927 0.625H6.43148C2.88494 0.625 0 3.50987 0 7.05648V34.7997C0 38.3462 2.88487 41.2311 6.43148 41.2311L27.6634 41.2325V56.8767H98.7989L146.882 15.3775H159.067V9.78013L144.906 9.78016ZM6.43148 35.3042C6.15306 35.3042 5.927 35.0796 5.927 34.7998V7.05659C5.927 6.77816 6.15167 6.55211 6.43148 6.55211H39.5927C39.8712 6.55211 40.0972 6.77678 40.0972 7.05659V14.7202H27.6633V35.3044L6.43148 35.3042Z" fill="url(#paint0_linear_130_331)"/>
<defs>
<linearGradient id="paint0_linear_130_331" x1="4.56089" y1="-2.24748" x2="101.48" y2="70.7268" gradientUnits="userSpaceOnUse">
<stop stop-color="#DB6508"/>
<stop offset="1" stop-color="#A82A06"/>
</linearGradient>
</defs>
</svg>
