<svg width="95" height="100" viewBox="0 0 95 100" fill="none" xmlns="http://www.w3.org/2000/svg">
<path fill-rule="evenodd" clip-rule="evenodd" d="M58.0115 35.8994C62.0926 36.3917 70.493 39.52 70.493 53.2401C70.493 55.7265 70.4473 58.1591 70.4036 60.4924C70.168 73.0478 69.9864 82.7316 77.2577 82.4905C85.5946 82.2142 87.2587 78.4412 87.786 75.2494C88.6213 70.1934 84.9529 62.2973 81.9482 55.8296C81.6971 55.2891 81.4506 54.7586 81.2118 54.2405C78.7345 48.8668 78.7187 37.3286 79.0204 32.2312C79.1474 29.0076 77.3228 22.894 74.447 19.4163C72.5194 17.0852 69.3515 13.605 66.847 10.8535C64.9156 8.73163 63.3786 7.04309 63.1089 6.649C62.4538 5.69157 60.1553 -1.06855 66.8724 0.837018C73.5895 2.74258 87.2143 13.4138 90.1679 26.0858C90.5321 28.3434 90.3485 32.5676 87.0805 32.8691C86.5532 32.9177 86.0712 33.279 86.0218 33.8062C85.533 39.0207 85.393 47.3727 88.2147 53.2401C92.0644 61.245 94.122 70.7237 94.122 73.7249C94.122 81.8236 90.2632 90.0175 77.2577 90.0175C67.3488 90.0175 61.2033 85.5394 62.8707 53.2401C62.9819 49.6989 62.2133 43.8361 58.0592 44.5221C58.0431 44.5248 58.0271 44.5273 58.0112 44.5298V89.9222C58.0112 90.9746 58.8644 91.8278 59.9168 91.8278L61.347 91.8277C62.3994 91.8277 63.2526 92.6809 63.2526 93.7333V97.735C63.2526 98.7874 62.3994 99.6406 61.347 99.6406H2.65557C1.60315 99.6406 0.75 98.7874 0.75 97.735V93.7333C0.75 92.6809 1.60315 91.8277 2.65557 91.8277L4.08367 91.8278C5.1361 91.8278 5.98926 90.9746 5.98926 89.9222V2.64729C5.98926 1.59487 6.84241 0.741718 7.89482 0.741718H56.1056C57.1581 0.741718 58.0112 1.59487 58.0112 2.64728V35.8999C58.0113 35.8998 58.0114 35.8996 58.0115 35.8994Z" fill="url(#paint0_linear_130_387)"/>
<rect x="13.6123" y="8.36389" width="36.7774" height="28.5835" rx="1.90557" fill="#1D1A1C"/>
<defs>
<linearGradient id="paint0_linear_130_387" x1="8.22929" y1="0.455906" x2="77.4014" y2="94.9714" gradientUnits="userSpaceOnUse">
<stop stop-color="#DB6508"/>
<stop offset="1" stop-color="#A82A06"/>
</linearGradient>
</defs>
</svg>
