<svg width="98" height="98" viewBox="0 0 98 98" fill="none" xmlns="http://www.w3.org/2000/svg">
<path fill-rule="evenodd" clip-rule="evenodd" d="M73.1433 85.258C74.5527 85.258 75.8576 84.53 76.6011 83.341H76.6012C77.3447 82.1479 77.41 80.6596 76.7801 79.4055L52.3984 30.8691C51.0166 28.1268 46.5098 28.1268 45.1281 30.8691L20.7464 79.4055C20.1171 80.6595 20.1817 82.1479 20.9253 83.341C21.6647 84.5301 22.9737 85.258 24.3798 85.258H73.1433ZM52.3988 2.55673L97.0975 91.5397H97.0985C97.7284 92.7936 97.6638 94.282 96.9203 95.4751C96.1761 96.6642 94.872 97.3921 93.4617 97.3921H4.06266C2.65654 97.3921 1.3483 96.6641 0.60882 95.4751C-0.135414 94.282 -0.200043 92.7937 0.429911 91.5397L45.1286 2.55673C46.5103 -0.185577 51.0172 -0.185577 52.3988 2.55673ZM66.57 77.1685H30.957L48.7626 41.7213L66.57 77.1685Z" fill="url(#paint0_linear_130_363)"/>
<defs>
<linearGradient id="paint0_linear_130_363" x1="9.48494" y1="16.9064" x2="106.898" y2="97.4002" gradientUnits="userSpaceOnUse">
<stop stop-color="#DB6508"/>
<stop offset="0.796022" stop-color="#A72A06"/>
</linearGradient>
</defs>
</svg>
