<svg width="1799" height="389" viewBox="0 0 1799 389" fill="none" xmlns="http://www.w3.org/2000/svg">
<path d="M10.099 266C7.42504 266 5.15214 265.064 3.28035 263.192C1.40855 261.321 0.472656 259.048 0.472656 256.374V67.055C0.472656 64.381 1.40855 62.1081 3.28035 60.2363C5.15214 58.3645 7.42504 57.4286 10.099 57.4286H42.9891C45.6631 57.4286 47.936 58.3645 49.8078 60.2363C51.6796 62.1081 52.6155 64.381 52.6155 67.055V138.852H81.4946L130.429 63.8462C131.498 61.9744 132.835 60.5037 134.44 59.4341C136.311 58.0971 138.718 57.4286 141.659 57.4286H177.357C180.031 57.4286 182.17 58.0971 183.775 59.4341C185.379 60.7711 186.181 62.5092 186.181 64.6484C186.181 65.4506 185.914 66.3865 185.379 67.4561C185.112 68.2583 184.711 69.0605 184.176 69.8627L126.418 157.703L192.599 253.566C193.936 255.17 194.605 256.908 194.605 258.78C194.605 260.919 193.802 262.658 192.198 263.995C190.594 265.332 188.588 266 186.181 266H145.67C142.996 266 140.724 265.465 138.852 264.396C137.247 263.326 135.777 261.855 134.44 259.984L81.4946 181.368H52.6155V256.374C52.6155 259.048 51.6796 261.321 49.8078 263.192C47.936 265.064 45.6631 266 42.9891 266H10.099Z" fill="#D96207"/>
<path d="M665.494 266C662.553 266 660.146 265.064 658.275 263.192C656.403 261.321 655.467 258.914 655.467 255.973V231.104C655.467 225.222 658.542 222.013 664.692 221.478C672.714 220.943 679.132 217.2 683.945 210.247C688.758 203.295 692.234 192.599 694.374 178.159C696.513 163.452 697.582 144.467 697.582 121.203V67.0549C697.582 64.381 698.518 62.1081 700.39 60.2363C702.262 58.3645 704.668 57.4286 707.61 57.4286H850C852.674 57.4286 854.947 58.3645 856.819 60.2363C858.69 62.1081 859.626 64.381 859.626 67.0549V256.374C859.626 259.048 858.69 261.321 856.819 263.192C854.947 265.064 852.674 266 850 266H816.709C813.767 266 811.361 265.064 809.489 263.192C807.885 261.321 807.082 259.048 807.082 256.374V99.9451H748.121V126.819C748.121 152.489 746.65 174.282 743.709 192.198C741.035 209.846 736.355 224.152 729.67 235.115C723.253 245.811 714.696 253.7 704 258.78C693.571 263.593 680.736 266 665.494 266Z" fill="#D96207"/>
<path d="M1300.43 274.824C1281.18 274.824 1264.2 271.214 1249.49 263.994C1235.06 256.775 1223.69 246.346 1215.4 232.709C1207.38 218.804 1202.97 202.092 1202.16 182.571C1201.9 178.56 1201.76 173.346 1201.76 166.928C1201.76 160.244 1201.9 154.762 1202.16 150.483C1202.97 130.963 1207.38 114.385 1215.4 100.747C1223.69 86.8424 1235.06 76.2801 1249.49 69.0604C1264.2 61.8406 1281.18 58.2307 1300.43 58.2307C1317.55 58.2307 1332.12 60.6373 1344.15 65.4505C1356.19 70.2637 1366.08 76.2801 1373.84 83.4999C1381.59 90.7197 1387.34 98.3406 1391.08 106.363C1395.09 114.117 1397.23 121.203 1397.5 127.621C1397.77 130.562 1396.83 132.969 1394.69 134.841C1392.82 136.445 1390.55 137.247 1387.87 137.247H1352.58C1349.9 137.247 1347.76 136.579 1346.16 135.242C1344.82 133.905 1343.49 131.899 1342.15 129.225C1338.14 118.529 1332.79 111.042 1326.1 106.764C1319.69 102.218 1311.4 99.945 1301.24 99.945C1287.87 99.945 1277.17 104.223 1269.15 112.78C1261.39 121.07 1257.25 134.306 1256.71 152.489C1256.18 162.65 1256.18 172.009 1256.71 180.566C1257.25 199.016 1261.39 212.386 1269.15 220.676C1277.17 228.965 1287.87 233.11 1301.24 233.11C1311.66 233.11 1320.09 230.971 1326.51 226.692C1332.92 222.146 1338.14 214.526 1342.15 203.83C1343.49 201.156 1344.82 199.15 1346.16 197.813C1347.76 196.476 1349.9 195.808 1352.58 195.808H1387.87C1390.55 195.808 1392.82 196.744 1394.69 198.615C1396.83 200.22 1397.77 202.493 1397.5 205.434C1397.23 210.247 1395.9 215.729 1393.49 221.879C1391.35 227.762 1387.74 233.912 1382.66 240.33C1377.85 246.48 1371.7 252.229 1364.21 257.577C1356.72 262.657 1347.63 266.802 1336.93 270.011C1326.51 273.22 1314.34 274.824 1300.43 274.824Z" fill="#D96207"/>
<path d="M1036.11 274.824C1006.43 274.824 982.897 266.267 965.516 249.154C948.135 232.04 938.776 207.707 937.439 176.154C937.172 173.48 937.038 170.137 937.038 166.126C937.038 161.848 937.172 158.505 937.439 156.099C938.509 136.044 943.055 118.663 951.077 103.956C959.366 89.249 970.731 78.0182 985.17 70.2637C999.61 62.2417 1016.59 58.2307 1036.11 58.2307C1057.77 58.2307 1075.95 62.7765 1090.66 71.8681C1105.37 80.6922 1116.46 93.1263 1123.95 109.17C1131.44 124.947 1135.18 143.264 1135.18 164.121V172.544C1135.18 175.218 1134.25 177.491 1132.37 179.363C1130.5 181.234 1128.1 182.17 1125.15 182.17H991.989C991.989 182.17 991.989 182.571 991.989 183.374C991.989 184.176 991.989 184.844 991.989 185.379C992.256 194.738 993.994 203.428 997.203 211.45C1000.68 219.205 1005.63 225.489 1012.04 230.302C1018.73 235.115 1026.62 237.522 1035.71 237.522C1043.2 237.522 1049.48 236.452 1054.56 234.313C1059.64 231.907 1063.79 229.233 1066.99 226.291C1070.2 223.35 1072.48 220.943 1073.81 219.071C1076.22 215.863 1078.09 213.991 1079.43 213.456C1081.03 212.654 1083.31 212.253 1086.25 212.253H1120.74C1123.42 212.253 1125.55 213.055 1127.16 214.659C1129.03 216.264 1129.83 218.269 1129.57 220.676C1129.3 224.954 1127.03 230.168 1122.75 236.319C1118.74 242.469 1112.85 248.485 1105.1 254.368C1097.34 260.251 1087.58 265.198 1075.82 269.209C1064.32 272.952 1051.08 274.824 1036.11 274.824ZM991.989 148.478H1080.63V147.275C1080.63 136.846 1078.89 127.755 1075.42 120C1071.94 112.245 1066.86 106.095 1060.18 101.549C1053.49 97.0036 1045.47 94.7307 1036.11 94.7307C1026.75 94.7307 1018.73 97.0036 1012.04 101.549C1005.36 106.095 1000.28 112.245 996.802 120C993.593 127.755 991.989 136.846 991.989 147.275V148.478Z" fill="#D96207"/>
<path fill-rule="evenodd" clip-rule="evenodd" d="M424.434 388.363C515.479 388.363 589.286 314.556 589.286 223.511C589.286 132.466 515.479 58.6594 424.434 58.6594C333.389 58.6594 259.583 132.466 259.583 223.511C259.583 314.556 333.389 388.363 424.434 388.363ZM424.434 326.593C481.365 326.593 527.516 280.442 527.516 223.511C527.516 166.58 481.365 120.429 424.434 120.429C367.503 120.429 321.352 166.58 321.352 223.511C321.352 280.442 367.503 326.593 424.434 326.593Z" fill="#D96207"/>
<path fill-rule="evenodd" clip-rule="evenodd" d="M1634.15 388.363C1725.19 388.363 1799 314.556 1799 223.511C1799 132.466 1725.19 58.6594 1634.15 58.6594C1543.1 58.6594 1469.3 132.466 1469.3 223.511C1469.3 314.556 1543.1 388.363 1634.15 388.363ZM1634.15 326.593C1691.08 326.593 1737.23 280.442 1737.23 223.511C1737.23 166.58 1691.08 120.429 1634.15 120.429C1577.22 120.429 1531.07 166.58 1531.07 223.511C1531.07 280.442 1577.22 326.593 1634.15 326.593Z" fill="#D96207"/>
</svg>
