<svg width="1799" height="332" viewBox="0 0 1799 332" fill="none" xmlns="http://www.w3.org/2000/svg">
<path d="M10.099 209C7.42504 209 5.15214 208.064 3.28035 206.192C1.40855 204.321 0.472656 202.048 0.472656 199.374V10.055C0.472656 7.38096 1.40855 5.10807 3.28035 3.23628C5.15214 1.36448 7.42504 0.428589 10.099 0.428589H42.9891C45.6631 0.428589 47.936 1.36448 49.8078 3.23628C51.6796 5.10807 52.6155 7.38096 52.6155 10.055V81.8517H81.4946L130.429 6.84618C131.498 4.97437 132.835 3.50368 134.44 2.43408C136.311 1.09709 138.718 0.428589 141.659 0.428589H177.357C180.031 0.428589 182.17 1.09709 183.775 2.43408C185.379 3.77108 186.181 5.50916 186.181 7.64836C186.181 8.45056 185.914 9.38646 185.379 10.4561C185.112 11.2583 184.711 12.0605 184.176 12.8627L126.418 100.703L192.599 196.566C193.936 198.17 194.605 199.908 194.605 201.78C194.605 203.919 193.802 205.658 192.198 206.995C190.594 208.332 188.588 209 186.181 209H145.67C142.996 209 140.724 208.465 138.852 207.396C137.247 206.326 135.777 204.855 134.44 202.984L81.4946 124.368H52.6155V199.374C52.6155 202.048 51.6796 204.321 49.8078 206.192C47.936 208.064 45.6631 209 42.9891 209H10.099Z" fill="#D96207"/>
<path d="M665.494 209C662.553 209 660.146 208.064 658.274 206.192C656.403 204.321 655.467 201.914 655.467 198.973V174.104C655.467 168.222 658.542 165.013 664.692 164.478C672.714 163.943 679.132 160.2 683.945 153.247C688.758 146.295 692.234 135.599 694.373 121.159C696.513 106.452 697.582 87.467 697.582 64.2033V10.055C697.582 7.38096 698.518 5.10807 700.39 3.23628C702.262 1.36448 704.668 0.428589 707.61 0.428589H850C852.674 0.428589 854.947 1.36448 856.818 3.23628C858.69 5.10807 859.626 7.38096 859.626 10.055V199.374C859.626 202.048 858.69 204.321 856.818 206.192C854.947 208.064 852.674 209 850 209H816.709C813.767 209 811.361 208.064 809.489 206.192C807.884 204.321 807.082 202.048 807.082 199.374V42.9451H748.121V69.8187C748.121 95.489 746.65 117.282 743.709 135.198C741.035 152.846 736.355 167.152 729.67 178.115C723.253 188.811 714.696 196.7 704 201.78C693.571 206.593 680.736 209 665.494 209Z" fill="#D96207"/>
<path d="M1300.43 217.824C1281.18 217.824 1264.2 214.214 1249.49 206.994C1235.05 199.775 1223.69 189.346 1215.4 175.709C1207.38 161.804 1202.97 145.092 1202.16 125.571C1201.9 121.56 1201.76 116.346 1201.76 109.929C1201.76 103.244 1201.9 97.7618 1202.16 93.4835C1202.97 73.9633 1207.38 57.3846 1215.4 43.7472C1223.69 29.8424 1235.05 19.2802 1249.49 12.0604C1264.2 4.8406 1281.18 1.23071 1300.43 1.23071C1317.55 1.23071 1332.12 3.6373 1344.15 8.45049C1356.19 13.2637 1366.08 19.2802 1373.84 26.5C1381.59 33.7197 1387.34 41.3406 1391.08 49.3626C1395.09 57.1172 1397.23 64.2032 1397.5 70.6208C1397.77 73.5622 1396.83 75.9688 1394.69 77.8406C1392.82 79.445 1390.55 80.2472 1387.87 80.2472H1352.58C1349.9 80.2472 1347.76 79.5787 1346.16 78.2417C1344.82 76.9047 1343.49 74.8992 1342.15 72.2252C1338.14 61.5293 1332.79 54.0421 1326.1 49.7637C1319.69 45.2179 1311.4 42.945 1301.24 42.945C1287.87 42.945 1277.17 47.2234 1269.15 55.7802C1261.39 64.0695 1257.25 77.3058 1256.71 95.4889C1256.18 105.65 1256.18 115.009 1256.71 123.566C1257.25 142.016 1261.39 155.386 1269.15 163.676C1277.17 171.965 1287.87 176.11 1301.24 176.11C1311.66 176.11 1320.09 173.971 1326.51 169.692C1332.92 165.146 1338.14 157.526 1342.15 146.83C1343.49 144.156 1344.82 142.15 1346.16 140.813C1347.76 139.476 1349.9 138.808 1352.58 138.808H1387.87C1390.55 138.808 1392.82 139.744 1394.69 141.615C1396.83 143.22 1397.77 145.493 1397.5 148.434C1397.23 153.247 1395.9 158.729 1393.49 164.879C1391.35 170.762 1387.74 176.912 1382.66 183.33C1377.85 189.48 1371.7 195.229 1364.21 200.577C1356.72 205.657 1347.63 209.802 1336.93 213.011C1326.51 216.22 1314.34 217.824 1300.43 217.824Z" fill="#D96207"/>
<path d="M1036.11 217.824C1006.43 217.824 982.898 209.267 965.517 192.154C948.136 175.04 938.777 150.707 937.44 119.154C937.172 116.48 937.039 113.137 937.039 109.126C937.039 104.848 937.172 101.505 937.44 99.0988C938.509 79.0439 943.055 61.6629 951.077 46.956C959.366 32.249 970.731 21.0183 985.17 13.2637C999.61 5.2417 1016.59 1.23071 1036.11 1.23071C1057.77 1.23071 1075.95 5.7765 1090.66 14.8681C1105.37 23.6922 1116.46 36.1263 1123.95 52.1703C1131.44 67.9468 1135.18 86.2637 1135.18 107.121V115.544C1135.18 118.218 1134.25 120.491 1132.37 122.363C1130.5 124.234 1128.1 125.17 1125.15 125.17H991.989C991.989 125.17 991.989 125.571 991.989 126.374C991.989 127.176 991.989 127.844 991.989 128.379C992.257 137.738 993.995 146.429 997.203 154.45C1000.68 162.205 1005.63 168.489 1012.04 173.302C1018.73 178.115 1026.62 180.522 1035.71 180.522C1043.2 180.522 1049.48 179.452 1054.56 177.313C1059.64 174.907 1063.79 172.233 1066.99 169.291C1070.2 166.35 1072.48 163.943 1073.81 162.071C1076.22 158.863 1078.09 156.991 1079.43 156.456C1081.03 155.654 1083.31 155.253 1086.25 155.253H1120.74C1123.42 155.253 1125.56 156.055 1127.16 157.659C1129.03 159.264 1129.83 161.269 1129.57 163.676C1129.3 167.954 1127.03 173.168 1122.75 179.319C1118.74 185.469 1112.85 191.485 1105.1 197.368C1097.34 203.251 1087.58 208.198 1075.82 212.209C1064.32 215.952 1051.08 217.824 1036.11 217.824ZM991.989 91.478H1080.63V90.2747C1080.63 79.8461 1078.89 70.7545 1075.42 62.9999C1071.94 55.2454 1066.86 49.0952 1060.18 44.5494C1053.49 40.0036 1045.47 37.7307 1036.11 37.7307C1026.75 37.7307 1018.73 40.0036 1012.04 44.5494C1005.36 49.0952 1000.28 55.2454 996.802 62.9999C993.594 70.7545 991.989 79.8461 991.989 90.2747V91.478Z" fill="#D96207"/>
<path fill-rule="evenodd" clip-rule="evenodd" d="M424.434 331.363C515.479 331.363 589.286 257.556 589.286 166.511C589.286 75.466 515.479 1.65936 424.434 1.65936C333.389 1.65936 259.583 75.466 259.583 166.511C259.583 257.556 333.389 331.363 424.434 331.363ZM424.434 269.593C481.365 269.593 527.516 223.442 527.516 166.511C527.516 109.58 481.365 63.4286 424.434 63.4286C367.503 63.4286 321.352 109.58 321.352 166.511C321.352 223.442 367.503 269.593 424.434 269.593Z" fill="#D96207"/>
<path fill-rule="evenodd" clip-rule="evenodd" d="M1634.15 331.363C1725.19 331.363 1799 257.556 1799 166.511C1799 75.466 1725.19 1.65936 1634.15 1.65936C1543.1 1.65936 1469.3 75.466 1469.3 166.511C1469.3 257.556 1543.1 331.363 1634.15 331.363ZM1634.15 269.593C1691.08 269.593 1737.23 223.442 1737.23 166.511C1737.23 109.58 1691.08 63.4286 1634.15 63.4286C1577.22 63.4286 1531.07 109.58 1531.07 166.511C1531.07 223.442 1577.22 269.593 1634.15 269.593Z" fill="#D96207"/>
</svg>
