<svg width="551" height="293" viewBox="0 0 551 293" fill="none" xmlns="http://www.w3.org/2000/svg">
<rect x="0.75" y="292.397" width="292.397" height="549.375" rx="75.3601" transform="rotate(-90 0.75 292.397)" fill="url(#paint0_radial_97_3667)"/>
<circle cx="169.944" cy="43.322" r="22.608" fill="#1D1A1C"/>
<circle cx="169.938" cy="104.364" r="22.608" fill="#1D1A1C"/>
<circle cx="169.931" cy="164.652" r="22.608" fill="#1D1A1C"/>
<circle cx="169.926" cy="225.694" r="22.608" fill="#1D1A1C"/>
<circle cx="222.694" cy="65.9348" r="22.608" fill="#1D1A1C"/>
<circle cx="222.687" cy="126.977" r="22.608" fill="#1D1A1C"/>
<circle cx="222.681" cy="187.265" r="22.608" fill="#1D1A1C"/>
<circle cx="222.675" cy="248.307" r="22.608" fill="#1D1A1C"/>
<circle cx="328.198" cy="65.9455" r="22.608" fill="#1D1A1C"/>
<circle cx="328.192" cy="126.988" r="22.608" fill="#1D1A1C"/>
<circle cx="328.185" cy="187.276" r="22.608" fill="#1D1A1C"/>
<circle cx="328.179" cy="248.317" r="22.608" fill="#1D1A1C"/>
<circle cx="275.448" cy="43.3327" r="22.608" fill="#1D1A1C"/>
<circle cx="275.443" cy="104.374" r="22.608" fill="#1D1A1C"/>
<circle cx="275.436" cy="164.662" r="22.608" fill="#1D1A1C"/>
<circle cx="275.429" cy="225.704" r="22.608" fill="#1D1A1C"/>
<circle cx="380.952" cy="43.3432" r="22.608" fill="#1D1A1C"/>
<circle cx="380.946" cy="104.385" r="22.608" fill="#1D1A1C"/>
<circle cx="380.94" cy="164.673" r="22.608" fill="#1D1A1C"/>
<circle cx="380.934" cy="225.715" r="22.608" fill="#1D1A1C"/>
<defs>
<radialGradient id="paint0_radial_97_3667" cx="0" cy="0" r="1" gradientUnits="userSpaceOnUse" gradientTransform="translate(146.949 567.085) rotate(90) scale(274.688 146.199)">
<stop stop-color="#A6A4A4"/>
<stop offset="1" stop-color="#565656"/>
</radialGradient>
</defs>
</svg>
