<svg width="294" height="550" viewBox="0 0 294 550" fill="none" xmlns="http://www.w3.org/2000/svg">
<rect x="0.67627" y="0.125244" width="292.397" height="549.375" rx="75.3601" fill="url(#paint0_radial_97_3689)"/>
<circle cx="94.0945" cy="60.147" r="22.6203" fill="#1D1A1C"/>
<circle cx="94.0945" cy="128.008" r="22.6203" fill="#1D1A1C"/>
<circle cx="94.0945" cy="195.869" r="22.6203" fill="#1D1A1C"/>
<circle cx="94.0945" cy="263.73" r="22.6203" fill="#1D1A1C"/>
<circle cx="94.0945" cy="331.591" r="22.6203" fill="#1D1A1C"/>
<circle cx="94.0945" cy="399.452" r="22.6203" fill="#1D1A1C"/>
<circle cx="94.0945" cy="467.313" r="22.6203" fill="#1D1A1C"/>
<circle cx="146.876" cy="82.7671" r="22.6203" fill="#1D1A1C"/>
<circle cx="146.876" cy="150.628" r="22.6203" fill="#1D1A1C"/>
<circle cx="146.876" cy="218.489" r="22.6203" fill="#1D1A1C"/>
<circle cx="146.876" cy="286.35" r="22.6203" fill="#1D1A1C"/>
<circle cx="146.876" cy="354.21" r="22.6203" fill="#1D1A1C"/>
<circle cx="146.876" cy="422.073" r="22.6203" fill="#1D1A1C"/>
<circle cx="146.876" cy="489.933" r="22.6203" fill="#1D1A1C"/>
<circle cx="199.656" cy="60.147" r="22.6203" fill="#1D1A1C"/>
<circle cx="199.656" cy="128.008" r="22.6203" fill="#1D1A1C"/>
<circle cx="199.656" cy="195.869" r="22.6203" fill="#1D1A1C"/>
<circle cx="199.656" cy="263.73" r="22.6203" fill="#1D1A1C"/>
<circle cx="199.656" cy="331.591" r="22.6203" fill="#1D1A1C"/>
<circle cx="199.656" cy="399.452" r="22.6203" fill="#1D1A1C"/>
<circle cx="199.656" cy="467.313" r="22.6203" fill="#1D1A1C"/>
<defs>
<radialGradient id="paint0_radial_97_3689" cx="0" cy="0" r="1" gradientUnits="userSpaceOnUse" gradientTransform="translate(146.875 274.813) rotate(90) scale(274.688 146.199)">
<stop stop-color="#A9A7A7"/>
<stop offset="1" stop-color="#565656"/>
</radialGradient>
</defs>
</svg>
