<svg width="410" height="410" viewBox="0 0 410 410" fill="none" xmlns="http://www.w3.org/2000/svg">
<circle cx="205" cy="205" r="205" fill="#1D1A1C"/>
<circle cx="204.999" cy="205.126" r="178" fill="url(#paint0_radial_119_627)"/>
<path d="M59.2614 196.401C60.6405 196.401 61.9136 196.688 63.0805 197.261C64.2475 197.834 65.1704 198.651 65.8494 199.711C66.5496 200.751 66.8997 201.971 66.8997 203.371C66.8997 204.814 66.5602 206.087 65.8812 207.191C65.4569 207.848 64.9264 208.464 64.2899 209.036C63.6534 209.609 62.7517 210.267 61.5847 211.01C60.0995 211.943 58.9962 212.718 58.2748 213.333C57.5534 213.948 56.9593 214.585 56.4925 215.243H67.027V219.125H50.6683C50.6683 217.683 50.9123 216.42 51.4003 215.338C51.8883 214.235 52.631 213.206 53.6282 212.251C54.201 211.72 54.8482 211.19 55.5696 210.66C56.291 210.129 57.5216 209.28 59.2614 208.113C60.2586 207.435 61.0224 206.756 61.5529 206.077C62.1045 205.398 62.3804 204.613 62.3804 203.721C62.3804 203.064 62.2424 202.48 61.9666 201.971C61.6908 201.441 61.2983 201.027 60.789 200.73C60.301 200.433 59.7176 200.284 59.0386 200.284C57.9353 200.284 57.076 200.74 56.4607 201.653C55.8454 202.565 55.5271 203.817 55.5059 205.408H51.1776V204.995C51.1776 203.276 51.5064 201.769 52.1642 200.475C52.8219 199.181 53.7555 198.184 54.9649 197.484C56.1955 196.762 57.6277 196.401 59.2614 196.401Z" fill="#1D1A1C"/>
<path d="M62.8158 156.402C64.0464 156.402 65.2346 156.646 66.3804 157.134C67.5261 157.622 68.4597 158.332 69.181 159.266C69.9237 160.199 70.295 161.303 70.295 162.576C70.295 163.7 70.0191 164.676 69.4675 165.504C68.937 166.31 68.1732 166.851 67.176 167.127V167.191C67.9823 167.36 68.6824 167.689 69.2765 168.177C69.8706 168.665 70.3268 169.259 70.645 169.959C70.9633 170.66 71.1224 171.423 71.1224 172.251C71.1224 173.736 70.7405 175.041 69.9767 176.166C69.2341 177.269 68.2263 178.118 66.9532 178.712C65.7014 179.284 64.3329 179.571 62.8477 179.571C61.1715 179.571 59.7075 179.253 58.4557 178.616C57.225 177.98 56.2703 177.067 55.5913 175.879C54.9123 174.691 54.5729 173.301 54.5729 171.71V171.455H58.8694C58.933 172.856 59.3043 173.938 59.9833 174.702C60.6835 175.465 61.617 175.847 62.784 175.847C63.4842 175.847 64.1101 175.699 64.6617 175.402C65.2134 175.105 65.6377 174.691 65.9348 174.16C66.253 173.63 66.4122 173.025 66.4122 172.346C66.4122 171.116 66.0409 170.256 65.2983 169.768C64.5557 169.28 63.4417 169.036 61.9565 169.036H61.2563V165.854H62.0838C63.3569 165.854 64.3223 165.62 64.98 165.154C65.659 164.666 65.9984 163.976 65.9984 163.085C65.9984 162.47 65.8499 161.939 65.5529 161.494C65.277 161.048 64.8951 160.709 64.4071 160.475C63.9404 160.242 63.4205 160.125 62.8477 160.125C61.8929 160.125 61.076 160.443 60.397 161.08C59.7393 161.716 59.4104 162.724 59.4104 164.103H55.1139C55.1563 162.555 55.5064 161.207 56.1642 160.062C56.8219 158.895 57.7237 157.993 58.8694 157.356C60.0151 156.72 61.3306 156.402 62.8158 156.402Z" fill="#1D1A1C"/>
<path d="M82.2268 132.245H85.1866V135.969H82.2268V141.125H77.9302V135.969H68.5097V131.832L78.1848 118.847H82.2268V132.245ZM72.0742 132.245H77.9302V124.512H77.8348L72.0742 132.245Z" fill="#1D1A1C"/>
<path d="M112.912 92.5703H103.714L102.823 97.6306L102.887 97.6943C103.46 97.1214 104.096 96.697 104.796 96.4212C105.497 96.1242 106.313 95.9757 107.247 95.9757C108.669 95.9757 109.899 96.3151 110.939 96.9941C111.979 97.673 112.764 98.5854 113.294 99.7311C113.846 100.877 114.121 102.15 114.121 103.55C114.121 105.014 113.761 106.362 113.039 107.592C112.318 108.802 111.331 109.767 110.08 110.488C108.828 111.21 107.449 111.57 105.942 111.57C104.351 111.57 102.929 111.295 101.677 110.743C100.426 110.17 99.439 109.353 98.7176 108.292C97.9962 107.231 97.6143 105.969 97.5719 104.505H102.091C102.197 105.523 102.579 106.34 103.237 106.956C103.916 107.55 104.754 107.847 105.751 107.847C106.494 107.847 107.152 107.656 107.724 107.274C108.319 106.871 108.775 106.34 109.093 105.683C109.432 105.025 109.602 104.314 109.602 103.55C109.602 102.786 109.454 102.086 109.157 101.45C108.86 100.813 108.414 100.315 107.82 99.9539C107.247 99.572 106.547 99.381 105.719 99.381C104.934 99.381 104.287 99.5296 103.778 99.8266C103.269 100.102 102.791 100.548 102.346 101.163H98.2721L100.468 88.8466H112.912V92.5703Z" fill="#1D1A1C"/>
<path d="M139.421 65.4013C140.715 65.4013 141.872 65.6453 142.89 66.1333C143.93 66.6213 144.768 67.3321 145.404 68.2656C146.062 69.1992 146.476 70.3025 146.646 71.5756H142.349C142.179 70.7481 141.819 70.0797 141.267 69.5705C140.715 69.0613 140.079 68.8067 139.357 68.8067C138.466 68.8067 137.713 69.1143 137.098 69.7296C136.482 70.3449 136.005 71.1618 135.666 72.1802C135.347 73.1987 135.156 74.3338 135.093 75.5856L135.156 75.6493C135.772 74.7794 136.482 74.1535 137.289 73.7716C138.095 73.3684 139.05 73.1669 140.153 73.1669C141.341 73.1669 142.455 73.4533 143.495 74.0262C144.556 74.599 145.404 75.4371 146.041 76.5404C146.699 77.6225 147.027 78.9168 147.027 80.4232C147.027 81.9509 146.699 83.3406 146.041 84.5924C145.383 85.823 144.46 86.799 143.272 87.5204C142.084 88.2206 140.736 88.5707 139.23 88.5707C137.257 88.5707 135.634 88.0933 134.361 87.1385C133.088 86.1625 132.154 84.8152 131.56 83.0966C130.966 81.378 130.669 79.3623 130.669 77.0496C130.669 75.1401 130.966 73.3048 131.56 71.5437C132.154 69.7615 133.098 68.2975 134.392 67.1517C135.708 65.9848 137.384 65.4013 139.421 65.4013ZM135.506 80.7096C135.506 81.4523 135.655 82.1418 135.952 82.7783C136.249 83.3936 136.673 83.8923 137.225 84.2742C137.777 84.6561 138.403 84.847 139.103 84.847C139.782 84.847 140.376 84.6561 140.885 84.2742C141.415 83.8923 141.819 83.3936 142.094 82.7783C142.37 82.1418 142.508 81.4735 142.508 80.7733C142.508 80.0519 142.381 79.3729 142.126 78.7364C141.872 78.0999 141.49 77.5801 140.98 77.1769C140.471 76.7738 139.835 76.5722 139.071 76.5722C138.35 76.5722 137.724 76.7526 137.193 77.1133C136.663 77.4528 136.249 77.9408 135.952 78.5773C135.655 79.1926 135.506 79.9034 135.506 80.7096Z" fill="#1D1A1C"/>
<path d="M204.879 45.401C206.577 45.401 207.977 45.7299 209.081 46.3877C210.205 47.0242 211.022 47.8092 211.531 48.7428C212.062 49.6551 212.327 50.5463 212.327 51.4162C212.327 52.5195 212.04 53.4849 211.467 54.3124C210.916 55.1186 210.12 55.7021 209.081 56.0628V56.1264C210.438 56.4447 211.467 57.0812 212.168 58.036C212.889 58.9908 213.25 60.1684 213.25 61.5687C213.25 63.0539 212.857 64.327 212.072 65.3878C211.308 66.4275 210.29 67.2231 209.017 67.7748C207.744 68.3052 206.375 68.5704 204.911 68.5704C203.426 68.5704 202.036 68.3158 200.742 67.8066C199.469 67.2974 198.429 66.523 197.623 65.4833C196.838 64.4224 196.446 63.1282 196.446 61.6005C196.446 60.2002 196.806 59.0226 197.528 58.0678C198.27 57.0918 199.31 56.4447 200.647 56.1264V56.0628C199.607 55.787 198.801 55.2459 198.228 54.4397C197.655 53.6122 197.369 52.6256 197.369 51.4798C197.369 50.2068 197.729 49.1141 198.451 48.2017C199.172 47.2894 200.106 46.5998 201.251 46.133C202.397 45.645 203.606 45.401 204.879 45.401ZM201.474 51.8936C201.474 52.5089 201.623 53.0393 201.92 53.4849C202.238 53.9304 202.652 54.2699 203.161 54.5033C203.691 54.7155 204.264 54.8216 204.879 54.8216C205.855 54.8216 206.651 54.567 207.266 54.0577C207.903 53.5273 208.221 52.8059 208.221 51.8936C208.221 51.0873 207.967 50.3765 207.457 49.7612C206.969 49.1247 206.099 48.8064 204.848 48.8064C204.254 48.8064 203.702 48.9231 203.193 49.1565C202.683 49.3899 202.27 49.74 201.951 50.2068C201.633 50.6736 201.474 51.2358 201.474 51.8936ZM200.965 61.3777C200.965 62.1204 201.135 62.7781 201.474 63.351C201.835 63.9238 202.312 64.3694 202.906 64.6877C203.5 65.0059 204.169 65.1651 204.911 65.1651C205.633 65.1651 206.28 65.0059 206.853 64.6877C207.447 64.3694 207.903 63.9238 208.221 63.351C208.561 62.7781 208.73 62.131 208.73 61.4096C208.73 60.7306 208.561 60.1259 208.221 59.5955C207.903 59.0438 207.447 58.6195 206.853 58.3224C206.28 58.0042 205.622 57.845 204.879 57.845C204.137 57.845 203.469 57.9936 202.874 58.2906C202.28 58.5664 201.814 58.9696 201.474 59.5C201.135 60.0304 200.965 60.6564 200.965 61.3777Z" fill="#1D1A1C"/>
<path d="M179.454 56.7299C177.969 58.0454 176.685 59.7428 175.603 61.8221C174.521 63.9014 173.683 66.108 173.089 68.4419C172.516 70.7758 172.208 73.0036 172.166 75.1254H167.328C167.583 71.8579 168.357 68.6753 169.652 65.5775C170.946 62.4586 172.665 59.6154 174.807 57.0481H164.241V52.8471H179.454V56.7299Z" fill="#1D1A1C"/>
<path d="M237.499 50.4012C239.429 50.4012 241.021 50.8786 242.272 51.8333C243.546 52.7881 244.49 54.1248 245.105 55.8434C245.72 57.5408 246.028 59.5565 246.028 61.8904C246.028 63.8636 245.72 65.7413 245.105 67.5236C244.511 69.2847 243.556 70.738 242.241 71.8838C240.925 73.0083 239.27 73.5706 237.276 73.5706C235.982 73.5706 234.815 73.3266 233.775 72.8386C232.756 72.3506 231.918 71.6504 231.261 70.738C230.624 69.8045 230.221 68.6906 230.051 67.3963H234.348C234.517 68.2026 234.878 68.8709 235.43 69.4013C235.982 69.9106 236.618 70.1652 237.339 70.1652C238.549 70.1652 239.525 69.5923 240.267 68.4466C241.01 67.2796 241.456 65.5928 241.604 63.3862L241.54 63.3226C240.946 64.1713 240.246 64.7972 239.44 65.2003C238.634 65.6034 237.658 65.805 236.512 65.805C235.451 65.805 234.39 65.5504 233.329 65.0412C232.29 64.5107 231.42 63.7045 230.72 62.6224C230.019 61.5191 229.669 60.1612 229.669 58.5486C229.669 57.0634 229.988 55.7055 230.624 54.4749C231.261 53.2231 232.173 52.2365 233.361 51.5151C234.549 50.7725 235.928 50.4012 237.499 50.4012ZM234.189 58.1986C234.189 58.92 234.316 59.6095 234.571 60.2673C234.825 60.9038 235.207 61.4236 235.716 61.8267C236.226 62.2086 236.851 62.3996 237.594 62.3996C238.358 62.3996 239.005 62.2193 239.535 61.8586C240.087 61.4766 240.501 60.978 240.777 60.3627C241.052 59.7262 241.19 59.026 241.19 58.2622C241.19 57.5196 241.042 56.8406 240.745 56.2253C240.448 55.5888 240.023 55.0796 239.472 54.6977C238.92 54.3158 238.294 54.1248 237.594 54.1248C236.915 54.1248 236.31 54.3158 235.78 54.6977C235.271 55.0796 234.878 55.5888 234.602 56.2253C234.327 56.8406 234.189 57.4984 234.189 58.1986Z" fill="#1D1A1C"/>
<path d="M267.476 88.1251H262.957V73.6761H257.355V70.2707H257.673C259.477 70.2707 260.898 69.8994 261.938 69.1568C262.999 68.3929 263.646 67.2896 263.879 65.8469H267.476V88.1251ZM281.5 65.4013C284.174 65.4013 286.211 66.3773 287.611 68.3293C289.011 70.2813 289.712 73.135 289.712 76.8905C289.712 80.7096 289.011 83.6164 287.611 85.6109C286.211 87.5841 284.174 88.5707 281.5 88.5707C278.827 88.5707 276.801 87.5841 275.422 85.6109C274.043 83.6376 273.353 80.7309 273.353 76.8905C273.353 73.135 274.043 70.2813 275.422 68.3293C276.801 66.3773 278.827 65.4013 281.5 65.4013ZM277.872 76.7632C277.872 78.1636 277.936 79.426 278.063 80.5505C278.191 81.6538 278.519 82.651 279.05 83.5422C279.58 84.4121 280.397 84.847 281.5 84.847C282.604 84.847 283.421 84.4227 283.951 83.574C284.503 82.7041 284.842 81.7069 284.969 80.5823C285.118 79.4578 285.192 78.1848 285.192 76.7632C285.192 75.4053 285.107 74.1853 284.938 73.1032C284.789 71.9999 284.439 71.0663 283.887 70.3025C283.336 69.5175 282.529 69.1249 281.469 69.1249C280.387 69.1249 279.58 69.5599 279.05 70.4298C278.519 71.2997 278.191 72.2651 278.063 73.326C277.936 74.3869 277.872 75.5326 277.872 76.7632Z" fill="#1D1A1C"/>
<path d="M327.379 108.86C329.607 108.86 331.559 109.38 333.235 110.42C334.933 111.438 336.238 112.86 337.15 114.684C338.084 116.488 338.55 118.546 338.55 120.859C338.55 122.492 338.296 124.02 337.787 125.442C337.299 126.842 336.567 128.104 335.591 129.229L338.423 131.807L336.1 134.257L332.885 131.329C331.336 132.22 329.501 132.666 327.379 132.666C325.109 132.666 323.125 132.146 321.428 131.107C319.752 130.046 318.457 128.624 317.545 126.842C316.654 125.038 316.208 123.044 316.208 120.859C316.208 118.588 316.654 116.551 317.545 114.748C318.436 112.923 319.72 111.491 321.396 110.451C323.093 109.391 325.088 108.86 327.379 108.86ZM321.205 120.859C321.205 122.132 321.396 123.341 321.778 124.487C322.181 125.632 322.849 126.587 323.783 127.351C324.717 128.094 325.926 128.465 327.411 128.465C327.984 128.465 328.408 128.444 328.684 128.401C328.981 128.359 329.215 128.274 329.384 128.147L327.252 126.205L329.575 123.723L332.153 126.078C332.62 125.463 332.97 124.71 333.204 123.818C333.437 122.927 333.554 121.941 333.554 120.859C333.554 119.31 333.32 117.952 332.853 116.785C332.387 115.618 331.687 114.706 330.753 114.048C329.819 113.39 328.684 113.061 327.348 113.061C326.032 113.061 324.908 113.401 323.974 114.08C323.062 114.737 322.372 115.65 321.905 116.817C321.439 117.984 321.205 119.331 321.205 120.859Z" fill="#1D1A1C"/>
<path d="M342.193 158.822L351.072 149.401H357.31L348.431 158.376L358.169 172.125H351.9L345.057 161.909L342.193 164.805V172.125H337.196V149.401H342.193V158.822Z" fill="#1D1A1C"/>
<path d="M306.499 102.996C306.499 105.5 305.863 107.409 304.59 108.725C303.338 110.019 301.471 110.666 298.988 110.666C297.461 110.666 296.124 110.38 294.978 109.807C293.854 109.234 292.984 108.428 292.369 107.388C291.753 106.327 291.446 105.097 291.446 103.696V101.659H295.965V102.773C295.965 104.089 296.198 105.033 296.665 105.606C297.153 106.179 297.885 106.465 298.861 106.465C299.625 106.465 300.198 106.306 300.58 105.988C300.983 105.648 301.237 105.234 301.343 104.746C301.45 104.258 301.503 103.654 301.503 102.932V87.4012H306.499V102.996Z" fill="#1D1A1C"/>
<path d="M361.031 200.603H354.22V219.125H349.224V200.603H342.413V196.401H361.031V200.603Z" fill="#1D1A1C"/>
<circle cx="205" cy="205" r="33" fill="#1D1A1C"/>
<defs>
<radialGradient id="paint0_radial_119_627" cx="0" cy="0" r="1" gradientUnits="userSpaceOnUse" gradientTransform="translate(204.999 205.126) rotate(90) scale(178)">
<stop stop-color="#DB6507"/>
<stop offset="1" stop-color="#A72905"/>
</radialGradient>
</defs>
</svg>
