<svg width="300" height="300" viewBox="0 0 300 300" fill="none" xmlns="http://www.w3.org/2000/svg">
<circle cx="150" cy="150" r="150" fill="#1D1A1C"/>
<circle cx="150" cy="150" r="125" fill="url(#paint0_radial_119_628)"/>
<path d="M235.307 159.693C235.307 159.693 228.603 141.468 206.806 140.369C227.562 133.611 229.272 114.265 229.272 114.265C229.272 114.265 235.976 132.49 257.773 133.589C237.017 140.348 235.307 159.693 235.307 159.693Z" fill="#1D1A1C"/>
<path d="M225.231 81.1172C223.954 83.4726 222.104 85.2746 220.062 86.3517L219.411 86.673L219.377 86.6826L195.309 98.4287L191.99 71.8547L191.981 71.821L191.895 71.1023C191.68 68.8038 192.178 66.2706 193.454 63.9153C196.38 58.5105 202.307 56.0585 206.696 58.4325C211.081 60.808 212.268 67.1115 209.342 72.5163C212.268 67.1115 218.195 64.6595 222.584 67.0335C226.974 69.4076 228.158 75.7173 225.232 81.122L225.231 81.1172Z" fill="#1D1A1C"/>
<path d="M100.501 64.0959C99.2123 64.938 98.186 66.0435 97.4592 67.3002L97.458 67.3055C97.0693 67.8678 96.4443 68.7535 95.6553 69.859C95.1772 67.4693 94.8282 65.5477 94.6478 64.5308C94.5198 63.0766 94.0552 61.6325 93.2304 60.3243C90.4658 55.9273 84.6965 54.6666 80.3494 57.4984C75.9959 60.3342 74.7075 66.1953 77.4732 70.5871C78.2941 71.8889 79.3765 72.9223 80.6102 73.6509L80.6153 73.6521C81.4439 74.2434 83.0021 75.3647 84.9296 76.8014C83.6616 77.0621 82.6465 77.2551 82.0041 77.3753C82.0041 77.3753 82.0041 77.3753 81.999 77.3741C80.5738 77.5218 79.1585 78.0005 77.8644 78.8414C73.511 81.6772 72.2225 87.5383 74.9883 91.9301C77.7528 96.327 83.5209 97.5929 87.8693 94.7559C89.1696 93.911 90.1932 92.794 90.9225 91.5268C91.6486 90.4835 93.1661 88.3244 95.0804 85.7309C98.3053 94.8366 97.3428 101.365 97.3428 101.365L103.416 97.4083L96.1132 85.7885L103.416 97.4083L112.739 91.3363C112.739 91.3363 106.576 89.5136 99.8433 82.8033C102.779 82.1607 105.173 81.6942 106.356 81.4742C107.79 81.3341 109.217 80.8526 110.512 80.0065C114.866 77.1706 116.149 71.3083 113.389 66.9178C110.624 62.5208 104.856 61.2549 100.508 64.0919L100.501 64.0959ZM105.821 93.9746L105.781 93.916L105.821 93.9746Z" fill="#1D1A1C"/>
<path d="M165.994 61.3099C166.057 67.2538 162.198 72.1164 157.367 72.1674C154.337 72.2013 151.639 70.3333 150.038 67.4575C151.102 70.4012 152.902 74.2166 155.904 78.8472L141.497 79C144.43 74.2675 146.139 70.3899 147.134 67.4123C145.602 70.3616 142.926 72.3202 139.868 72.3542C135.037 72.4051 131.069 67.6274 131.001 61.6835C130.972 59.0908 131.693 56.7019 132.916 54.8339L133.316 54.2621L133.339 54.2395L148.192 33L163.507 53.9111L163.525 53.9338L163.936 54.4999C165.2 56.3453 165.971 58.7172 166 61.3099H165.994Z" fill="#1D1A1C"/>
<circle cx="150" cy="150.125" r="15" fill="#1D1A1C"/>
<defs>
<radialGradient id="paint0_radial_119_628" cx="0" cy="0" r="1" gradientUnits="userSpaceOnUse" gradientTransform="translate(150 150) rotate(90) scale(125)">
<stop stop-color="#DB6507"/>
<stop offset="1" stop-color="#A72905"/>
</radialGradient>
</defs>
</svg>
