<svg width="300" height="301" viewBox="0 0 300 301" fill="none" xmlns="http://www.w3.org/2000/svg">
<circle cx="150" cy="150.125" r="150" fill="#1D1A1C"/>
<circle cx="150.001" cy="150.125" r="125" fill="url(#paint0_radial_118_626)"/>
<path d="M119.003 182.602L121.011 179.59H124.513L120.721 184.989L124.982 191.125H121.368L118.958 187.488L116.548 191.125H113.001L117.151 185.056L113.358 179.59H116.972L119.003 182.602ZM133.73 191.125H130.562V180.996H126.635V178.608H126.859C128.123 178.608 129.119 178.348 129.848 177.827C130.592 177.292 131.046 176.518 131.209 175.507H133.73V191.125ZM143.562 175.195C145.436 175.195 146.864 175.879 147.846 177.247C148.828 178.616 149.318 180.616 149.318 183.249C149.318 185.926 148.828 187.964 147.846 189.362C146.864 190.745 145.436 191.437 143.562 191.437C141.688 191.437 140.267 190.745 139.301 189.362C138.334 187.979 137.85 185.941 137.85 183.249C137.85 180.616 138.334 178.616 139.301 177.247C140.267 175.879 141.688 175.195 143.562 175.195ZM141.019 183.16C141.019 184.141 141.063 185.026 141.152 185.815C141.242 186.588 141.472 187.287 141.844 187.912C142.216 188.522 142.789 188.827 143.562 188.827C144.336 188.827 144.908 188.529 145.28 187.934C145.667 187.324 145.905 186.625 145.994 185.837C146.098 185.049 146.15 184.156 146.15 183.16C146.15 182.208 146.091 181.353 145.972 180.594C145.868 179.82 145.622 179.166 145.235 178.631C144.849 178.08 144.283 177.805 143.54 177.805C142.781 177.805 142.216 178.11 141.844 178.72C141.472 179.33 141.242 180.006 141.152 180.75C141.063 181.494 141.019 182.297 141.019 183.16ZM155.96 175.195C157.834 175.195 159.262 175.879 160.243 177.247C161.225 178.616 161.716 180.616 161.716 183.249C161.716 185.926 161.225 187.964 160.243 189.362C159.262 190.745 157.834 191.437 155.96 191.437C154.085 191.437 152.665 190.745 151.698 189.362C150.731 187.979 150.248 185.941 150.248 183.249C150.248 180.616 150.731 178.616 151.698 177.247C152.665 175.879 154.085 175.195 155.96 175.195ZM153.416 183.16C153.416 184.141 153.461 185.026 153.55 185.815C153.639 186.588 153.87 187.287 154.242 187.912C154.613 188.522 155.186 188.827 155.96 188.827C156.733 188.827 157.306 188.529 157.678 187.934C158.064 187.324 158.302 186.625 158.391 185.837C158.496 185.049 158.548 184.156 158.548 183.16C158.548 182.208 158.488 181.353 158.369 180.594C158.265 179.82 158.02 179.166 157.633 178.631C157.246 178.08 156.681 177.805 155.937 177.805C155.179 177.805 154.613 178.11 154.242 178.72C153.87 179.33 153.639 180.006 153.55 180.75C153.461 181.494 153.416 182.297 153.416 183.16ZM168.357 175.195C170.231 175.195 171.659 175.879 172.641 177.247C173.622 178.616 174.113 180.616 174.113 183.249C174.113 185.926 173.622 187.964 172.641 189.362C171.659 190.745 170.231 191.437 168.357 191.437C166.483 191.437 165.062 190.745 164.096 189.362C163.129 187.979 162.645 185.941 162.645 183.249C162.645 180.616 163.129 178.616 164.096 177.247C165.062 175.879 166.483 175.195 168.357 175.195ZM165.814 183.16C165.814 184.141 165.858 185.026 165.947 185.815C166.037 186.588 166.267 187.287 166.639 187.912C167.011 188.522 167.584 188.827 168.357 188.827C169.13 188.827 169.703 188.529 170.075 187.934C170.462 187.324 170.7 186.625 170.789 185.837C170.893 185.049 170.945 184.156 170.945 183.16C170.945 182.208 170.886 181.353 170.767 180.594C170.662 179.82 170.417 179.166 170.03 178.631C169.644 178.08 169.078 177.805 168.335 177.805C167.576 177.805 167.011 178.11 166.639 178.72C166.267 179.33 166.037 180.006 165.947 180.75C165.858 181.494 165.814 182.297 165.814 183.16ZM181.424 173.097V174.815C182.956 174.979 184.153 175.47 185.016 176.288C185.893 177.091 186.369 178.184 186.444 179.568H183.276C183.276 179.181 183.186 178.824 183.008 178.497C182.844 178.169 182.621 177.909 182.339 177.716C182.056 177.522 181.751 177.426 181.424 177.426V181.375C182.792 181.687 183.878 182.074 184.681 182.535C185.499 182.981 186.087 183.546 186.444 184.231C186.816 184.9 187.002 185.725 187.002 186.707C187.002 187.376 186.808 188.068 186.421 188.782C186.035 189.481 185.417 190.091 184.57 190.612C183.737 191.132 182.688 191.43 181.424 191.504V193.4H180.107V191.504C176.731 191.251 174.879 189.399 174.552 185.949H177.72V186.016C177.72 186.774 177.936 187.406 178.367 187.912C178.799 188.418 179.379 188.745 180.107 188.894V184.231C180.003 184.201 179.817 184.156 179.55 184.097C179.297 184.022 178.977 183.926 178.59 183.807C177.356 183.42 176.434 182.899 175.824 182.245C175.229 181.576 174.931 180.691 174.931 179.59C174.931 178.683 175.147 177.879 175.578 177.18C176.025 176.481 176.634 175.931 177.408 175.529C178.196 175.128 179.096 174.89 180.107 174.815V173.097H181.424ZM178.099 179.278C178.099 179.768 178.256 180.148 178.568 180.415C178.88 180.668 179.394 180.884 180.107 181.062V177.426C179.736 177.426 179.394 177.5 179.081 177.649C178.784 177.798 178.546 178.013 178.367 178.296C178.189 178.578 178.099 178.906 178.099 179.278ZM181.424 188.894C182.138 188.819 182.718 188.589 183.164 188.202C183.61 187.8 183.833 187.302 183.833 186.707C183.833 186.335 183.759 186.023 183.61 185.77C183.462 185.517 183.209 185.302 182.852 185.123C182.51 184.945 182.034 184.774 181.424 184.61V188.894Z" fill="#1D1A1C"/>
<path d="M47.4085 158.125H44.0005V147.229H39.7765V144.661H40.0165C41.3765 144.661 42.4485 144.381 43.2325 143.821C44.0325 143.245 44.5205 142.413 44.6965 141.325H47.4085V158.125ZM57.9844 140.989C60.0004 140.989 61.5364 141.725 62.5924 143.197C63.6484 144.669 64.1764 146.821 64.1764 149.653C64.1764 152.533 63.6484 154.725 62.5924 156.229C61.5364 157.717 60.0004 158.461 57.9844 158.461C55.9684 158.461 54.4404 157.717 53.4004 156.229C52.3604 154.741 51.8404 152.549 51.8404 149.653C51.8404 146.821 52.3604 144.669 53.4004 143.197C54.4404 141.725 55.9684 140.989 57.9844 140.989ZM55.2484 149.557C55.2484 150.613 55.2964 151.565 55.3924 152.413C55.4884 153.245 55.7364 153.997 56.1364 154.669C56.5364 155.325 57.1524 155.653 57.9844 155.653C58.8164 155.653 59.4324 155.333 59.8324 154.693C60.2484 154.037 60.5044 153.285 60.6004 152.437C60.7124 151.589 60.7684 150.629 60.7684 149.557C60.7684 148.533 60.7044 147.613 60.5764 146.797C60.4644 145.965 60.2004 145.261 59.7844 144.685C59.3684 144.093 58.7604 143.797 57.9604 143.797C57.1444 143.797 56.5364 144.125 56.1364 144.781C55.7364 145.437 55.4884 146.165 55.3924 146.965C55.2964 147.765 55.2484 148.629 55.2484 149.557ZM71.3204 140.989C73.3364 140.989 74.8724 141.725 75.9284 143.197C76.9844 144.669 77.5124 146.821 77.5124 149.653C77.5124 152.533 76.9844 154.725 75.9284 156.229C74.8724 157.717 73.3364 158.461 71.3204 158.461C69.3044 158.461 67.7764 157.717 66.7364 156.229C65.6964 154.741 65.1764 152.549 65.1764 149.653C65.1764 146.821 65.6964 144.669 66.7364 143.197C67.7764 141.725 69.3044 140.989 71.3204 140.989ZM68.5844 149.557C68.5844 150.613 68.6324 151.565 68.7284 152.413C68.8244 153.245 69.0724 153.997 69.4724 154.669C69.8724 155.325 70.4884 155.653 71.3204 155.653C72.1524 155.653 72.7684 155.333 73.1684 154.693C73.5844 154.037 73.8404 153.285 73.9364 152.437C74.0484 151.589 74.1044 150.629 74.1044 149.557C74.1044 148.533 74.0404 147.613 73.9124 146.797C73.8004 145.965 73.5364 145.261 73.1204 144.685C72.7044 144.093 72.0964 143.797 71.2964 143.797C70.4804 143.797 69.8724 144.125 69.4724 144.781C69.0724 145.437 68.8244 146.165 68.7284 146.965C68.6324 147.765 68.5844 148.629 68.5844 149.557Z" fill="#1D1A1C"/>
<path d="M55.984 99.989C57.024 99.989 57.984 100.205 58.864 100.637C59.744 101.069 60.44 101.685 60.952 102.485C61.48 103.269 61.744 104.189 61.744 105.245C61.744 106.333 61.488 107.293 60.976 108.125C60.656 108.621 60.256 109.085 59.776 109.517C59.296 109.949 58.616 110.445 57.736 111.005C56.616 111.709 55.784 112.293 55.24 112.757C54.696 113.221 54.248 113.701 53.896 114.197H61.84V117.125H49.504C49.504 116.037 49.688 115.085 50.056 114.269C50.424 113.437 50.984 112.661 51.736 111.941C52.168 111.541 52.656 111.141 53.2 110.741C53.744 110.341 54.672 109.701 55.984 108.821C56.736 108.309 57.312 107.797 57.712 107.285C58.128 106.773 58.336 106.181 58.336 105.509C58.336 105.013 58.232 104.573 58.024 104.189C57.816 103.789 57.52 103.477 57.136 103.253C56.768 103.029 56.328 102.917 55.816 102.917C54.984 102.917 54.336 103.261 53.872 103.949C53.408 104.637 53.168 105.581 53.152 106.781H49.888V106.469C49.888 105.173 50.136 104.037 50.632 103.061C51.128 102.085 51.832 101.333 52.744 100.805C53.672 100.261 54.752 99.989 55.984 99.989ZM68.9839 99.989C70.9999 99.989 72.5359 100.725 73.5919 102.197C74.6479 103.669 75.1759 105.821 75.1759 108.653C75.1759 111.533 74.6479 113.725 73.5919 115.229C72.5359 116.717 70.9999 117.461 68.9839 117.461C66.9679 117.461 65.4399 116.717 64.3999 115.229C63.3599 113.741 62.8399 111.549 62.8399 108.653C62.8399 105.821 63.3599 103.669 64.3999 102.197C65.4399 100.725 66.9679 99.989 68.9839 99.989ZM66.2479 108.557C66.2479 109.613 66.2959 110.565 66.3919 111.413C66.4879 112.245 66.7359 112.997 67.1359 113.669C67.5359 114.325 68.1519 114.653 68.9839 114.653C69.8159 114.653 70.4319 114.333 70.8319 113.693C71.2479 113.037 71.5039 112.285 71.5999 111.437C71.7119 110.589 71.7679 109.629 71.7679 108.557C71.7679 107.533 71.7039 106.613 71.5759 105.797C71.4639 104.965 71.1999 104.261 70.7839 103.685C70.3679 103.093 69.7599 102.797 68.9599 102.797C68.1439 102.797 67.5359 103.125 67.1359 103.781C66.7359 104.437 66.4879 105.165 66.3919 105.965C66.2959 106.765 66.2479 107.629 66.2479 108.557ZM82.3199 99.989C84.3359 99.989 85.8719 100.725 86.9279 102.197C87.9839 103.669 88.5119 105.821 88.5119 108.653C88.5119 111.533 87.9839 113.725 86.9279 115.229C85.8719 116.717 84.3359 117.461 82.3199 117.461C80.3039 117.461 78.7759 116.717 77.7359 115.229C76.6959 113.741 76.1759 111.549 76.1759 108.653C76.1759 105.821 76.6959 103.669 77.7359 102.197C78.7759 100.725 80.3039 99.989 82.3199 99.989ZM79.5839 108.557C79.5839 109.613 79.6319 110.565 79.7279 111.413C79.8239 112.245 80.0719 112.997 80.4719 113.669C80.8719 114.325 81.4879 114.653 82.3199 114.653C83.1519 114.653 83.7679 114.333 84.1679 113.693C84.5839 113.037 84.8399 112.285 84.9359 111.437C85.0479 110.589 85.1039 109.629 85.1039 108.557C85.1039 107.533 85.0399 106.613 84.9119 105.797C84.7999 104.965 84.5359 104.261 84.1199 103.685C83.7039 103.093 83.0959 102.797 82.2959 102.797C81.4799 102.797 80.8719 103.125 80.4719 103.781C80.0719 104.437 79.8239 105.165 79.7279 105.965C79.6319 106.765 79.5839 107.629 79.5839 108.557Z" fill="#1D1A1C"/>
<path d="M82.648 62.9888C83.576 62.9888 84.472 63.1728 85.336 63.5408C86.2 63.9088 86.904 64.4448 87.448 65.1488C88.008 65.8528 88.288 66.6848 88.288 67.6448C88.288 68.4928 88.08 69.2288 87.664 69.8528C87.264 70.4608 86.688 70.8688 85.936 71.0768V71.1248C86.544 71.2528 87.072 71.5008 87.52 71.8688C87.968 72.2368 88.312 72.6848 88.552 73.2128C88.792 73.7408 88.912 74.3168 88.912 74.9408C88.912 76.0608 88.624 77.0448 88.048 77.8928C87.488 78.7248 86.728 79.3648 85.768 79.8128C84.824 80.2448 83.792 80.4608 82.672 80.4608C81.408 80.4608 80.304 80.2208 79.36 79.7408C78.432 79.2608 77.712 78.5728 77.2 77.6768C76.688 76.7808 76.432 75.7328 76.432 74.5328V74.3408H79.672C79.72 75.3968 80 76.2128 80.512 76.7888C81.04 77.3648 81.744 77.6528 82.624 77.6528C83.152 77.6528 83.624 77.5408 84.04 77.3168C84.456 77.0928 84.776 76.7808 85 76.3808C85.24 75.9808 85.36 75.5248 85.36 75.0128C85.36 74.0848 85.08 73.4368 84.52 73.0688C83.96 72.7008 83.12 72.5168 82 72.5168H81.472V70.1168H82.096C83.056 70.1168 83.784 69.9408 84.28 69.5888C84.792 69.2208 85.048 68.7008 85.048 68.0288C85.048 67.5648 84.936 67.1648 84.712 66.8288C84.504 66.4928 84.216 66.2368 83.848 66.0608C83.496 65.8848 83.104 65.7968 82.672 65.7968C81.952 65.7968 81.336 66.0368 80.824 66.5168C80.328 66.9968 80.08 67.7568 80.08 68.7968H76.84C76.872 67.6288 77.136 66.6128 77.632 65.7488C78.128 64.8688 78.808 64.1888 79.672 63.7088C80.536 63.2288 81.528 62.9888 82.648 62.9888ZM95.9839 62.9888C97.9999 62.9888 99.5359 63.7248 100.592 65.1968C101.648 66.6688 102.176 68.8208 102.176 71.6528C102.176 74.5328 101.648 76.7248 100.592 78.2288C99.5359 79.7168 97.9999 80.4608 95.9839 80.4608C93.9679 80.4608 92.4399 79.7168 91.3999 78.2288C90.3599 76.7408 89.8399 74.5488 89.8399 71.6528C89.8399 68.8208 90.3599 66.6688 91.3999 65.1968C92.4399 63.7248 93.9679 62.9888 95.9839 62.9888ZM93.2479 71.5568C93.2479 72.6128 93.2959 73.5648 93.3919 74.4128C93.4879 75.2448 93.7359 75.9968 94.1359 76.6688C94.5359 77.3248 95.1519 77.6528 95.9839 77.6528C96.8159 77.6528 97.4319 77.3328 97.8319 76.6928C98.2479 76.0368 98.5039 75.2848 98.5999 74.4368C98.7119 73.5888 98.7679 72.6288 98.7679 71.5568C98.7679 70.5328 98.7039 69.6128 98.5759 68.7968C98.4639 67.9648 98.1999 67.2608 97.7839 66.6848C97.3679 66.0928 96.7599 65.7968 95.9599 65.7968C95.1439 65.7968 94.5359 66.1248 94.1359 66.7808C93.7359 67.4368 93.4879 68.1648 93.3919 68.9648C93.2959 69.7648 93.2479 70.6288 93.2479 71.5568ZM109.32 62.9888C111.336 62.9888 112.872 63.7248 113.928 65.1968C114.984 66.6688 115.512 68.8208 115.512 71.6528C115.512 74.5328 114.984 76.7248 113.928 78.2288C112.872 79.7168 111.336 80.4608 109.32 80.4608C107.304 80.4608 105.776 79.7168 104.736 78.2288C103.696 76.7408 103.176 74.5488 103.176 71.6528C103.176 68.8208 103.696 66.6688 104.736 65.1968C105.776 63.7248 107.304 62.9888 109.32 62.9888ZM106.584 71.5568C106.584 72.6128 106.632 73.5648 106.728 74.4128C106.824 75.2448 107.072 75.9968 107.472 76.6688C107.872 77.3248 108.488 77.6528 109.32 77.6528C110.152 77.6528 110.768 77.3328 111.168 76.6928C111.584 76.0368 111.84 75.2848 111.936 74.4368C112.048 73.5888 112.104 72.6288 112.104 71.5568C112.104 70.5328 112.04 69.6128 111.912 68.7968C111.8 67.9648 111.536 67.2608 111.12 66.6848C110.704 66.0928 110.096 65.7968 109.296 65.7968C108.48 65.7968 107.872 66.1248 107.472 66.7808C107.072 67.4368 106.824 68.1648 106.728 68.9648C106.632 69.7648 106.584 70.6288 106.584 71.5568Z" fill="#1D1A1C"/>
<path d="M139.728 54.4294H141.96V57.2374H139.728V61.1254H136.488V57.2374H129.384V54.1174L136.68 44.3254H139.728V54.4294ZM132.072 54.4294H136.488V48.5974H136.416L132.072 54.4294ZM148.984 43.9894C151 43.9894 152.536 44.7254 153.592 46.1974C154.648 47.6694 155.176 49.8214 155.176 52.6534C155.176 55.5334 154.648 57.7254 153.592 59.2294C152.536 60.7174 151 61.4614 148.984 61.4614C146.968 61.4614 145.44 60.7174 144.4 59.2294C143.36 57.7414 142.84 55.5494 142.84 52.6534C142.84 49.8214 143.36 47.6694 144.4 46.1974C145.44 44.7254 146.968 43.9894 148.984 43.9894ZM146.248 52.5574C146.248 53.6134 146.296 54.5654 146.392 55.4134C146.488 56.2454 146.736 56.9974 147.136 57.6694C147.536 58.3254 148.152 58.6534 148.984 58.6534C149.816 58.6534 150.432 58.3334 150.832 57.6934C151.248 57.0374 151.504 56.2854 151.6 55.4374C151.712 54.5894 151.768 53.6294 151.768 52.5574C151.768 51.5334 151.704 50.6134 151.576 49.7974C151.464 48.9654 151.2 48.2614 150.784 47.6854C150.368 47.0934 149.76 46.7974 148.96 46.7974C148.144 46.7974 147.536 47.1254 147.136 47.7814C146.736 48.4374 146.488 49.1654 146.392 49.9654C146.296 50.7654 146.248 51.6294 146.248 52.5574ZM162.32 43.9894C164.336 43.9894 165.872 44.7254 166.928 46.1974C167.984 47.6694 168.512 49.8214 168.512 52.6534C168.512 55.5334 167.984 57.7254 166.928 59.2294C165.872 60.7174 164.336 61.4614 162.32 61.4614C160.304 61.4614 158.776 60.7174 157.736 59.2294C156.696 57.7414 156.176 55.5494 156.176 52.6534C156.176 49.8214 156.696 47.6694 157.736 46.1974C158.776 44.7254 160.304 43.9894 162.32 43.9894ZM159.584 52.5574C159.584 53.6134 159.632 54.5654 159.728 55.4134C159.824 56.2454 160.072 56.9974 160.472 57.6694C160.872 58.3254 161.488 58.6534 162.32 58.6534C163.152 58.6534 163.768 58.3334 164.168 57.6934C164.584 57.0374 164.84 56.2854 164.936 55.4374C165.048 54.5894 165.104 53.6294 165.104 52.5574C165.104 51.5334 165.04 50.6134 164.912 49.7974C164.8 48.9654 164.536 48.2614 164.12 47.6854C163.704 47.0934 163.096 46.7974 162.296 46.7974C161.48 46.7974 160.872 47.1254 160.472 47.7814C160.072 48.4374 159.824 49.1654 159.728 49.9654C159.632 50.7654 159.584 51.6294 159.584 52.5574Z" fill="#1D1A1C"/>
<path d="M193.999 68.133H187.063L186.391 71.949L186.439 71.997C186.871 71.565 187.351 71.245 187.879 71.037C188.407 70.813 189.023 70.701 189.727 70.701C190.799 70.701 191.727 70.957 192.511 71.469C193.295 71.981 193.887 72.669 194.287 73.533C194.703 74.397 194.911 75.357 194.911 76.413C194.911 77.517 194.639 78.533 194.095 79.461C193.551 80.373 192.807 81.101 191.863 81.645C190.919 82.189 189.879 82.461 188.743 82.461C187.543 82.461 186.471 82.253 185.527 81.837C184.583 81.405 183.839 80.789 183.295 79.989C182.751 79.189 182.463 78.237 182.431 77.133H185.839C185.919 77.901 186.207 78.517 186.703 78.981C187.215 79.429 187.847 79.653 188.599 79.653C189.159 79.653 189.655 79.509 190.087 79.221C190.535 78.917 190.879 78.517 191.119 78.021C191.375 77.525 191.503 76.989 191.503 76.413C191.503 75.837 191.391 75.309 191.167 74.829C190.943 74.349 190.607 73.973 190.159 73.701C189.727 73.413 189.199 73.269 188.575 73.269C187.983 73.269 187.495 73.381 187.111 73.605C186.727 73.813 186.367 74.149 186.031 74.613H182.959L184.615 65.325H193.999V68.133ZM201.983 64.989C203.999 64.989 205.535 65.725 206.591 67.197C207.647 68.669 208.175 70.821 208.175 73.653C208.175 76.533 207.647 78.725 206.591 80.229C205.535 81.717 203.999 82.461 201.983 82.461C199.967 82.461 198.439 81.717 197.399 80.229C196.359 78.741 195.839 76.549 195.839 73.653C195.839 70.821 196.359 68.669 197.399 67.197C198.439 65.725 199.967 64.989 201.983 64.989ZM199.247 73.557C199.247 74.613 199.295 75.565 199.391 76.413C199.487 77.245 199.735 77.997 200.135 78.669C200.535 79.325 201.151 79.653 201.983 79.653C202.815 79.653 203.431 79.333 203.831 78.693C204.247 78.037 204.503 77.285 204.599 76.437C204.711 75.589 204.767 74.629 204.767 73.557C204.767 72.533 204.703 71.613 204.575 70.797C204.463 69.965 204.199 69.261 203.783 68.685C203.367 68.093 202.759 67.797 201.959 67.797C201.143 67.797 200.535 68.125 200.135 68.781C199.735 69.437 199.487 70.165 199.391 70.965C199.295 71.765 199.247 72.629 199.247 73.557ZM215.319 64.989C217.335 64.989 218.871 65.725 219.927 67.197C220.983 68.669 221.511 70.821 221.511 73.653C221.511 76.533 220.983 78.725 219.927 80.229C218.871 81.717 217.335 82.461 215.319 82.461C213.303 82.461 211.775 81.717 210.735 80.229C209.695 78.741 209.175 76.549 209.175 73.653C209.175 70.821 209.695 68.669 210.735 67.197C211.775 65.725 213.303 64.989 215.319 64.989ZM212.583 73.557C212.583 74.613 212.631 75.565 212.727 76.413C212.823 77.245 213.071 77.997 213.471 78.669C213.871 79.325 214.487 79.653 215.319 79.653C216.151 79.653 216.767 79.333 217.167 78.693C217.583 78.037 217.839 77.285 217.935 76.437C218.047 75.589 218.103 74.629 218.103 73.557C218.103 72.533 218.039 71.613 217.911 70.797C217.799 69.965 217.535 69.261 217.119 68.685C216.703 68.093 216.095 67.797 215.295 67.797C214.479 67.797 213.871 68.125 213.471 68.781C213.071 69.437 212.823 70.165 212.727 70.965C212.631 71.765 212.583 72.629 212.583 73.557Z" fill="#1D1A1C"/>
<circle cx="150" cy="150.125" r="15" fill="#1D1A1C"/>
<defs>
<radialGradient id="paint0_radial_118_626" cx="0" cy="0" r="1" gradientUnits="userSpaceOnUse" gradientTransform="translate(150.001 150.125) rotate(90) scale(125)">
<stop stop-color="#DB6507"/>
<stop offset="1" stop-color="#A72905"/>
</radialGradient>
</defs>
</svg>
