<svg width="1078" height="502" viewBox="0 0 1078 502" fill="none" xmlns="http://www.w3.org/2000/svg">
<rect x="0.429199" y="0.375" width="1077.14" height="500.995" fill="#1D1A1C"/>
<line x1="230.574" y1="0.375" x2="230.574" y2="62.9994" stroke="#CC5407" stroke-width="15.6561"/>
<line x1="427.841" y1="62.9995" x2="427.841" y2="125.624" stroke="#CC5407" stroke-width="15.6561"/>
<line x1="634.502" y1="0.375" x2="634.502" y2="62.9994" stroke="#CC5407" stroke-width="15.6561"/>
<line x1="847.425" y1="0.375" x2="847.425" y2="62.9994" stroke="#CC5407" stroke-width="15.6561"/>
<line x1="634.502" y1="125.624" x2="634.502" y2="188.248" stroke="#CC5407" stroke-width="15.6561"/>
<line x1="847.425" y1="125.624" x2="847.425" y2="188.248" stroke="#CC5407" stroke-width="15.6561"/>
<line x1="634.502" y1="250.873" x2="634.502" y2="313.497" stroke="#CC5407" stroke-width="15.6561"/>
<line x1="847.425" y1="250.873" x2="847.425" y2="313.497" stroke="#CC5407" stroke-width="15.6561"/>
<line x1="634.502" y1="376.121" x2="634.502" y2="438.746" stroke="#CC5407" stroke-width="15.6561"/>
<line x1="847.425" y1="376.121" x2="847.425" y2="438.746" stroke="#CC5407" stroke-width="15.6561"/>
<line x1="12.9541" y1="125.624" x2="12.9541" y2="188.248" stroke="#CC5407" stroke-width="25.0498"/>
<line x1="230.574" y1="125.624" x2="230.574" y2="188.248" stroke="#CC5407" stroke-width="15.6561"/>
<line x1="427.841" y1="188.249" x2="427.841" y2="250.873" stroke="#CC5407" stroke-width="15.6561"/>
<line x1="12.9541" y1="250.873" x2="12.9541" y2="313.497" stroke="#CC5407" stroke-width="25.0498"/>
<line x1="230.574" y1="250.873" x2="230.574" y2="313.497" stroke="#CC5407" stroke-width="15.6561"/>
<line x1="427.841" y1="313.497" x2="427.841" y2="376.122" stroke="#CC5407" stroke-width="15.6561"/>
<line x1="12.9541" y1="376.121" x2="12.9541" y2="438.746" stroke="#CC5407" stroke-width="25.0498"/>
<line x1="230.574" y1="376.121" x2="230.574" y2="438.746" stroke="#CC5407" stroke-width="15.6561"/>
<line x1="427.841" y1="438.746" x2="427.841" y2="501.37" stroke="#CC5407" stroke-width="15.6561"/>
<line x1="9.82324" y1="488.845" x2="72.4476" y2="488.845" stroke="#CC5407" stroke-width="25.0498"/>
<line x1="197.697" y1="12.9002" x2="260.321" y2="12.9002" stroke="#CC5407" stroke-width="25.0498"/>
<line x1="322.945" y1="12.9002" x2="385.57" y2="12.9002" stroke="#CC5407" stroke-width="25.0498"/>
<line x1="448.194" y1="12.9002" x2="510.819" y2="12.9002" stroke="#CC5407" stroke-width="25.0498"/>
<line x1="573.443" y1="12.9002" x2="636.068" y2="12.9002" stroke="#CC5407" stroke-width="25.0498"/>
<line x1="698.692" y1="12.9002" x2="761.316" y2="12.9002" stroke="#CC5407" stroke-width="25.0498"/>
<line x1="820.81" y1="12.9002" x2="883.434" y2="12.9002" stroke="#CC5407" stroke-width="25.0498"/>
<line x1="946.058" y1="12.9002" x2="1008.68" y2="12.9002" stroke="#CC5407" stroke-width="25.0498"/>
<line x1="135.072" y1="488.845" x2="197.697" y2="488.845" stroke="#CC5407" stroke-width="25.0498"/>
<line x1="260.321" y1="488.845" x2="322.945" y2="488.845" stroke="#CC5407" stroke-width="25.0498"/>
<line x1="385.57" y1="488.845" x2="448.194" y2="488.845" stroke="#CC5407" stroke-width="25.0498"/>
<line x1="510.819" y1="488.845" x2="573.443" y2="488.845" stroke="#CC5407" stroke-width="25.0498"/>
<line x1="636.068" y1="488.845" x2="698.693" y2="488.845" stroke="#CC5407" stroke-width="25.0498"/>
<line x1="758.186" y1="488.845" x2="820.81" y2="488.845" stroke="#CC5407" stroke-width="25.0498"/>
<line x1="883.434" y1="488.845" x2="946.058" y2="488.845" stroke="#CC5407" stroke-width="25.0498"/>
<line x1="1008.68" y1="488.845" x2="1071.31" y2="488.845" stroke="#CC5407" stroke-width="25.0498"/>
<line x1="1065.04" y1="438.746" x2="1065.04" y2="376.122" stroke="#CC5407" stroke-width="25.0498"/>
<line x1="1065.04" y1="313.497" x2="1065.04" y2="250.873" stroke="#CC5407" stroke-width="25.0498"/>
<line x1="1065.04" y1="188.249" x2="1065.04" y2="125.624" stroke="#CC5407" stroke-width="25.0498"/>
<line x1="12.9541" y1="62.9995" x2="12.9541" y2="125.624" stroke="#AC2F06" stroke-width="25.0498"/>
<line x1="230.574" y1="62.9995" x2="230.574" y2="125.624" stroke="#AC2F06" stroke-width="15.6561"/>
<line x1="427.841" y1="0.375" x2="427.841" y2="62.9994" stroke="#AC2F06" stroke-width="15.6561"/>
<line x1="634.502" y1="62.9995" x2="634.502" y2="125.624" stroke="#AC2F06" stroke-width="15.6561"/>
<line x1="847.425" y1="62.9995" x2="847.425" y2="125.624" stroke="#AC2F06" stroke-width="15.6561"/>
<line x1="634.502" y1="188.249" x2="634.502" y2="250.873" stroke="#AC2F06" stroke-width="15.6561"/>
<line x1="847.425" y1="188.249" x2="847.425" y2="250.873" stroke="#AC2F06" stroke-width="15.6561"/>
<line x1="634.502" y1="313.497" x2="634.502" y2="376.122" stroke="#AC2F06" stroke-width="15.6561"/>
<line x1="847.425" y1="313.497" x2="847.425" y2="376.122" stroke="#AC2F06" stroke-width="15.6561"/>
<line x1="634.502" y1="438.746" x2="634.502" y2="501.37" stroke="#AC2F06" stroke-width="15.6561"/>
<line x1="847.425" y1="438.746" x2="847.425" y2="501.37" stroke="#AC2F06" stroke-width="15.6561"/>
<line x1="427.841" y1="125.624" x2="427.841" y2="188.248" stroke="#AC2F06" stroke-width="15.6561"/>
<line x1="427.841" y1="250.873" x2="427.841" y2="313.497" stroke="#AC2F06" stroke-width="15.6561"/>
<line x1="12.9541" y1="188.249" x2="12.9541" y2="250.873" stroke="#AC2F06" stroke-width="25.0498"/>
<line x1="230.574" y1="188.249" x2="230.574" y2="250.873" stroke="#AC2F06" stroke-width="15.6561"/>
<line x1="12.9541" y1="313.497" x2="12.9541" y2="376.122" stroke="#AC2F06" stroke-width="25.0498"/>
<line x1="230.574" y1="313.497" x2="230.574" y2="376.122" stroke="#AC2F06" stroke-width="15.6561"/>
<line x1="427.841" y1="376.121" x2="427.841" y2="438.746" stroke="#AC2F06" stroke-width="15.6561"/>
<line x1="12.9541" y1="438.746" x2="12.9541" y2="501.37" stroke="#AC2F06" stroke-width="25.0498"/>
<line x1="230.574" y1="438.746" x2="230.574" y2="501.37" stroke="#AC2F06" stroke-width="15.6561"/>
<line x1="72.4478" y1="488.845" x2="135.072" y2="488.845" stroke="#AC2F06" stroke-width="25.0498"/>
<line x1="19.2168" y1="12.9002" x2="81.8412" y2="12.9002" stroke="#AC2F06" stroke-width="25.0498"/>
<line x1="135.072" y1="12.9002" x2="197.697" y2="12.9002" stroke="#AC2F06" stroke-width="25.0498"/>
<line x1="260.321" y1="12.9002" x2="322.945" y2="12.9002" stroke="#AC2F06" stroke-width="25.0498"/>
<line x1="385.57" y1="12.9002" x2="448.194" y2="12.9002" stroke="#AC2F06" stroke-width="25.0498"/>
<line x1="510.819" y1="12.9002" x2="573.443" y2="12.9002" stroke="#AC2F06" stroke-width="25.0498"/>
<line x1="636.068" y1="12.9002" x2="698.693" y2="12.9002" stroke="#AC2F06" stroke-width="25.0498"/>
<line x1="758.186" y1="12.9002" x2="820.81" y2="12.9002" stroke="#AC2F06" stroke-width="25.0498"/>
<line x1="883.434" y1="12.9002" x2="946.058" y2="12.9002" stroke="#AC2F06" stroke-width="25.0498"/>
<line x1="1008.68" y1="12.9002" x2="1071.31" y2="12.9002" stroke="#AC2F06" stroke-width="25.0498"/>
<line x1="197.697" y1="488.845" x2="260.321" y2="488.845" stroke="#AC2F06" stroke-width="25.0498"/>
<line x1="322.945" y1="488.845" x2="385.57" y2="488.845" stroke="#AC2F06" stroke-width="25.0498"/>
<line x1="448.194" y1="488.845" x2="510.819" y2="488.845" stroke="#AC2F06" stroke-width="25.0498"/>
<line x1="573.443" y1="488.845" x2="636.068" y2="488.845" stroke="#AC2F06" stroke-width="25.0498"/>
<line x1="698.692" y1="488.845" x2="761.316" y2="488.845" stroke="#AC2F06" stroke-width="25.0498"/>
<line x1="820.81" y1="488.845" x2="883.434" y2="488.845" stroke="#AC2F06" stroke-width="25.0498"/>
<line x1="946.058" y1="488.845" x2="1008.68" y2="488.845" stroke="#AC2F06" stroke-width="25.0498"/>
<line x1="72.4478" y1="12.9002" x2="135.072" y2="12.9002" stroke="#CC5407" stroke-width="25.0498"/>
<line x1="1065.04" y1="501.37" x2="1065.04" y2="438.746" stroke="#AC2F06" stroke-width="25.0498"/>
<line x1="1065.04" y1="376.121" x2="1065.04" y2="313.497" stroke="#AC2F06" stroke-width="25.0498"/>
<line x1="1065.04" y1="250.873" x2="1065.04" y2="188.248" stroke="#AC2F06" stroke-width="25.0498"/>
<line x1="12.9541" y1="0.375" x2="12.9541" y2="65.2613" stroke="#CC5407" stroke-width="25.0498"/>
<line x1="1065.04" y1="62.9995" x2="1065.04" y2="0.375107" stroke="#CC5407" stroke-width="25.0498"/>
<line x1="1065.04" y1="125.624" x2="1065.04" y2="62.9996" stroke="#AC2F06" stroke-width="25.0498"/>
</svg>
