<svg width="1078" height="605" viewBox="0 0 1078 605" fill="none" xmlns="http://www.w3.org/2000/svg">
<rect y="104" width="1077.14" height="500.995" fill="#1D1A1C"/>
<line x1="230.574" y1="104.375" x2="230.574" y2="166.999" stroke="#CC5407" stroke-width="15.6561"/>
<line x1="427.841" y1="167" x2="427.841" y2="229.624" stroke="#CC5407" stroke-width="15.6561"/>
<line x1="634.502" y1="104.375" x2="634.502" y2="166.999" stroke="#CC5407" stroke-width="15.6561"/>
<line x1="847.425" y1="104.375" x2="847.425" y2="166.999" stroke="#CC5407" stroke-width="15.6561"/>
<line x1="634.502" y1="229.624" x2="634.502" y2="292.248" stroke="#CC5407" stroke-width="15.6561"/>
<line x1="847.425" y1="229.624" x2="847.425" y2="292.248" stroke="#CC5407" stroke-width="15.6561"/>
<line x1="634.502" y1="354.873" x2="634.502" y2="417.497" stroke="#CC5407" stroke-width="15.6561"/>
<line x1="847.425" y1="354.873" x2="847.425" y2="417.497" stroke="#CC5407" stroke-width="15.6561"/>
<line x1="634.502" y1="467.121" x2="634.502" y2="529.746" stroke="#CC5407" stroke-width="15.6561"/>
<line x1="847.425" y1="480.121" x2="847.425" y2="542.746" stroke="#CC5407" stroke-width="15.6561"/>
<line x1="12.5249" y1="229" x2="12.5249" y2="291.624" stroke="#CC5407" stroke-width="25.0498"/>
<line x1="230.574" y1="229.624" x2="230.574" y2="292.248" stroke="#CC5407" stroke-width="15.6561"/>
<line x1="427.841" y1="292.249" x2="427.841" y2="354.873" stroke="#CC5407" stroke-width="15.6561"/>
<line x1="12.5249" y1="353" x2="12.5249" y2="415.624" stroke="#CC5407" stroke-width="25.0498"/>
<line x1="230.574" y1="354.873" x2="230.574" y2="417.497" stroke="#CC5407" stroke-width="15.6561"/>
<line x1="427.841" y1="417.497" x2="427.841" y2="480.122" stroke="#CC5407" stroke-width="15.6561"/>
<line x1="12.5249" y1="477" x2="12.5249" y2="539.624" stroke="#CC5407" stroke-width="25.0498"/>
<line x1="230.574" y1="480.121" x2="230.574" y2="542.746" stroke="#CC5407" stroke-width="15.6561"/>
<line x1="427.841" y1="541.746" x2="427.841" y2="604.37" stroke="#CC5407" stroke-width="15.6561"/>
<line x1="10" y1="592.475" x2="72.6244" y2="592.475" stroke="#CC5407" stroke-width="25.0498"/>
<line x1="197.697" y1="116.9" x2="260.321" y2="116.9" stroke="#CC5407" stroke-width="25.0498"/>
<line x1="322.945" y1="116.9" x2="385.57" y2="116.9" stroke="#CC5407" stroke-width="25.0498"/>
<line x1="448.194" y1="116.9" x2="510.819" y2="116.9" stroke="#CC5407" stroke-width="25.0498"/>
<line x1="573.443" y1="116.9" x2="636.068" y2="116.9" stroke="#CC5407" stroke-width="25.0498"/>
<line x1="698.692" y1="116.9" x2="761.316" y2="116.9" stroke="#CC5407" stroke-width="25.0498"/>
<line x1="820.81" y1="116.9" x2="883.434" y2="116.9" stroke="#CC5407" stroke-width="25.0498"/>
<line x1="946.058" y1="116.9" x2="1008.68" y2="116.9" stroke="#CC5407" stroke-width="25.0498"/>
<line x1="134" y1="592.475" x2="196.624" y2="592.475" stroke="#CC5407" stroke-width="25.0498"/>
<line x1="258" y1="592.475" x2="320.624" y2="592.475" stroke="#CC5407" stroke-width="25.0498"/>
<line x1="381" y1="592.475" x2="443.624" y2="592.475" stroke="#CC5407" stroke-width="25.0498"/>
<line x1="505" y1="592.475" x2="567.624" y2="592.475" stroke="#CC5407" stroke-width="25.0498"/>
<line x1="629" y1="592.475" x2="691.624" y2="592.475" stroke="#CC5407" stroke-width="25.0498"/>
<line x1="752" y1="592.475" x2="814.624" y2="592.475" stroke="#CC5407" stroke-width="25.0498"/>
<line x1="876" y1="592.475" x2="938.624" y2="592.475" stroke="#CC5407" stroke-width="25.0498"/>
<line x1="1000" y1="592.475" x2="1062.62" y2="592.475" stroke="#CC5407" stroke-width="25.0498"/>
<line x1="1065.48" y1="542.625" x2="1065.48" y2="480" stroke="#CC5407" stroke-width="25.0498"/>
<line x1="1065.48" y1="418.625" x2="1065.48" y2="356" stroke="#CC5407" stroke-width="25.0498"/>
<line x1="1065.48" y1="294.625" x2="1065.48" y2="232" stroke="#CC5407" stroke-width="25.0498"/>
<line x1="12.5249" y1="167" x2="12.5249" y2="229.624" stroke="#AC2F06" stroke-width="25.0498"/>
<line x1="230.574" y1="167" x2="230.574" y2="229.624" stroke="#AC2F06" stroke-width="15.6561"/>
<line x1="427.841" y1="104.375" x2="427.841" y2="166.999" stroke="#AC2F06" stroke-width="15.6561"/>
<line x1="634.502" y1="167" x2="634.502" y2="229.624" stroke="#AC2F06" stroke-width="15.6561"/>
<line x1="847.425" y1="167" x2="847.425" y2="229.624" stroke="#AC2F06" stroke-width="15.6561"/>
<line x1="634.502" y1="292.249" x2="634.502" y2="354.873" stroke="#AC2F06" stroke-width="15.6561"/>
<line x1="847.425" y1="292.249" x2="847.425" y2="354.873" stroke="#AC2F06" stroke-width="15.6561"/>
<line x1="634.502" y1="407.497" x2="634.502" y2="470.122" stroke="#AC2F06" stroke-width="15.6561"/>
<line x1="847.425" y1="417.497" x2="847.425" y2="480.122" stroke="#AC2F06" stroke-width="15.6561"/>
<line x1="634.502" y1="517.746" x2="634.502" y2="580.37" stroke="#AC2F06" stroke-width="15.6561"/>
<line x1="847.425" y1="541.746" x2="847.425" y2="604.37" stroke="#AC2F06" stroke-width="15.6561"/>
<line x1="427.841" y1="229.624" x2="427.841" y2="292.248" stroke="#AC2F06" stroke-width="15.6561"/>
<line x1="427.841" y1="354.873" x2="427.841" y2="417.497" stroke="#AC2F06" stroke-width="15.6561"/>
<line x1="12.5249" y1="291" x2="12.5249" y2="353.624" stroke="#AC2F06" stroke-width="25.0498"/>
<line x1="230.574" y1="292.249" x2="230.574" y2="354.873" stroke="#AC2F06" stroke-width="15.6561"/>
<line x1="12.5249" y1="415" x2="12.5249" y2="477.624" stroke="#AC2F06" stroke-width="25.0498"/>
<line x1="230.574" y1="417.497" x2="230.574" y2="480.122" stroke="#AC2F06" stroke-width="15.6561"/>
<line x1="427.841" y1="480.121" x2="427.841" y2="542.746" stroke="#AC2F06" stroke-width="15.6561"/>
<line x1="12.5249" y1="540" x2="12.5249" y2="605" stroke="#AC2F06" stroke-width="25.0498"/>
<line x1="230.574" y1="541.746" x2="230.574" y2="604.37" stroke="#AC2F06" stroke-width="15.6561"/>
<line x1="72" y1="592.475" x2="134.624" y2="592.475" stroke="#AC2F06" stroke-width="25.0498"/>
<line x1="19.2168" y1="116.9" x2="81.8412" y2="116.9" stroke="#AC2F06" stroke-width="25.0498"/>
<line x1="135.072" y1="116.9" x2="197.697" y2="116.9" stroke="#AC2F06" stroke-width="25.0498"/>
<line x1="260.321" y1="116.9" x2="322.945" y2="116.9" stroke="#AC2F06" stroke-width="25.0498"/>
<line x1="385.57" y1="116.9" x2="448.194" y2="116.9" stroke="#AC2F06" stroke-width="25.0498"/>
<line x1="510.819" y1="116.9" x2="573.443" y2="116.9" stroke="#AC2F06" stroke-width="25.0498"/>
<line x1="636.068" y1="116.9" x2="698.693" y2="116.9" stroke="#AC2F06" stroke-width="25.0498"/>
<line x1="758.186" y1="116.9" x2="820.81" y2="116.9" stroke="#AC2F06" stroke-width="25.0498"/>
<line x1="883.434" y1="116.9" x2="946.058" y2="116.9" stroke="#AC2F06" stroke-width="25.0498"/>
<line x1="1008.68" y1="116.9" x2="1071.31" y2="116.9" stroke="#AC2F06" stroke-width="25.0498"/>
<line x1="196" y1="592.475" x2="258.624" y2="592.475" stroke="#AC2F06" stroke-width="25.0498"/>
<line x1="320" y1="592.475" x2="382.624" y2="592.475" stroke="#AC2F06" stroke-width="25.0498"/>
<line x1="443" y1="592.475" x2="505.624" y2="592.475" stroke="#AC2F06" stroke-width="25.0498"/>
<line x1="567" y1="592.475" x2="629.624" y2="592.475" stroke="#AC2F06" stroke-width="25.0498"/>
<line x1="690" y1="592.475" x2="752.624" y2="592.475" stroke="#AC2F06" stroke-width="25.0498"/>
<line x1="814" y1="592.475" x2="876.624" y2="592.475" stroke="#AC2F06" stroke-width="25.0498"/>
<line x1="938" y1="592.475" x2="1000.62" y2="592.475" stroke="#AC2F06" stroke-width="25.0498"/>
<line x1="72.4482" y1="116.9" x2="135.073" y2="116.9" stroke="#CC5407" stroke-width="25.0498"/>
<line x1="1065.48" y1="604.625" x2="1065.48" y2="542" stroke="#AC2F06" stroke-width="25.0498"/>
<line x1="1065.48" y1="480.625" x2="1065.48" y2="418" stroke="#AC2F06" stroke-width="25.0498"/>
<line x1="1065.48" y1="356.625" x2="1065.48" y2="294" stroke="#AC2F06" stroke-width="25.0498"/>
<line x1="1065.48" y1="171" x2="1065.48" y2="105" stroke="#CC5407" stroke-width="25.0498"/>
<line x1="1065.48" y1="232.625" x2="1065.48" y2="170" stroke="#AC2F06" stroke-width="25.0498"/>
<line x1="12.5249" y1="104.375" x2="12.5249" y2="169.261" stroke="#CC5407" stroke-width="25.0498"/>
<rect width="1078" height="105" fill="#CC5407"/>
<rect x="1053" y="604" width="25" height="1" fill="#AC2F06"/>
<rect x="25" width="48" height="130" fill="#AC2F06"/>
<rect x="135" width="63" height="130" fill="#AC2F06"/>
<rect x="260" width="63" height="130" fill="#AC2F06"/>
<rect x="386" width="63" height="130" fill="#AC2F06"/>
<rect x="511" width="63" height="130" fill="#AC2F06"/>
<rect x="637" width="62" height="130" fill="#AC2F06"/>
<rect x="759" width="62" height="130" fill="#AC2F06"/>
<rect x="884" width="62" height="130" fill="#AC2F06"/>
<rect x="1009" width="44" height="130" fill="#AC2F06"/>
<rect x="73" width="62" height="130" fill="#CC5407"/>
<rect x="198" width="62" height="130" fill="#CC5407"/>
<rect x="323" width="63" height="130" fill="#CC5407"/>
<rect x="449" width="62" height="130" fill="#CC5407"/>
<rect x="573" width="64" height="130" fill="#CC5407"/>
<rect x="699" width="60" height="130" fill="#CC5407"/>
<rect x="821" width="63" height="130" fill="#CC5407"/>
<rect x="946" width="63" height="130" fill="#CC5407"/>
<rect x="1" y="26" width="1077" height="78" fill="#CC5407"/>
</svg>
