<svg width="1023" height="1023" viewBox="0 0 1023 1023" fill="none" xmlns="http://www.w3.org/2000/svg">
<path fill-rule="evenodd" clip-rule="evenodd" d="M511.688 1022.5C793.871 1022.5 1022.63 793.747 1022.63 511.564C1022.63 402.132 988.222 300.735 929.642 217.6C837.166 86.3596 684.439 0.626099 511.688 0.626099C338.936 0.626099 186.209 86.3596 93.7331 217.6C35.1528 300.735 0.75 402.132 0.75 511.564C0.75 793.747 229.505 1022.5 511.688 1022.5ZM511.5 921C737.661 921 921 737.661 921 511.5C921 285.339 737.661 102 511.5 102C285.339 102 102 285.339 102 511.5C102 737.661 285.339 921 511.5 921Z" fill="url(#paint0_radial_97_3805)"/>
<path fill-rule="evenodd" clip-rule="evenodd" d="M611.106 658.235C634.554 642.335 653.975 620.942 667.518 595.903C751.765 591.158 847.528 582.255 918.138 566.641H918.638C925.037 517.514 919.804 466.126 916.638 446.572H916.138C874.976 450.738 814.699 450.64 774.655 435.157C741.965 422.518 712.027 406.591 683.186 391.248C632.715 364.399 585.602 339.335 532.971 336.797C526.154 335.997 519.219 335.586 512.187 335.586C504.969 335.586 497.852 336.019 490.86 336.861C439.051 339.94 392.506 364.701 342.689 391.203C313.848 406.546 283.91 422.472 251.22 435.112C211.176 450.594 148.899 450.738 107.737 446.572H107.237C103.5 464 97.5002 512.5 105.237 566.558H105.737C176.124 582.122 272.18 591.031 356.799 595.798C371.142 622.358 392.096 644.823 417.456 660.989C435.085 702.666 463.137 797.246 455.694 917.514L455.696 917.515L455.694 917.515C456.194 918.514 484.49 921.714 513.687 922.514L513.686 922.514L513.687 922.514C542.883 921.714 572.18 918.015 572.68 917.015L572.675 917.015L572.679 917.014C565.067 794.022 593.671 698.347 611.106 658.235Z" fill="url(#paint1_linear_97_3805)"/>
<circle cx="512.5" cy="511.563" r="156.5" fill="url(#paint2_radial_97_3805)"/>
<path fill-rule="evenodd" clip-rule="evenodd" d="M584.138 452.745H563.024V487.076L536.631 452.745H512.877L512.878 452.745H491.763L465.37 487.076V452.745H444.256V574.224H465.37V539.893L491.763 574.224H515.517L515.517 574.223H536.631L563.024 539.893V574.223H584.138V452.745ZM514.197 572.625L563.024 513.484L514.197 454.344L465.37 513.484L514.197 572.625Z" fill="url(#paint3_radial_97_3805)"/>
<path fill-rule="evenodd" clip-rule="evenodd" d="M84.7393 230.598C133.567 153.108 274.717 0.116805 513.687 0.626392C748.158 1.12639 890.474 153.774 937.635 229.099L808.264 229.326C733.663 150.892 628.291 102 511.5 102C394.191 102 288.403 151.327 213.745 230.371L84.7393 230.598Z" fill="url(#paint4_linear_97_3805)"/>
<path fill-rule="evenodd" clip-rule="evenodd" d="M213.866 792.757L84.7393 792.53C133.567 870.02 269.217 1020.5 510.687 1022.5C748.152 1024.47 890.474 869.353 937.635 794.029L808.142 793.802C733.549 872.161 628.228 921 511.5 921C394.254 921 288.517 871.726 213.866 792.757Z" fill="url(#paint5_linear_97_3805)"/>
<defs>
<radialGradient id="paint0_radial_97_3805" cx="0" cy="0" r="1" gradientUnits="userSpaceOnUse" gradientTransform="translate(511.688 511.564) rotate(90) scale(658.419)">
<stop offset="0.659152" stop-color="#404040"/>
<stop offset="0.933552" stop-color="#9D9D9D"/>
</radialGradient>
<linearGradient id="paint1_linear_97_3805" x1="719.007" y1="336.586" x2="719.007" y2="683.543" gradientUnits="userSpaceOnUse">
<stop offset="0.226242" stop-color="#6B6B6B"/>
<stop offset="0.615937" stop-color="#383838"/>
</linearGradient>
<radialGradient id="paint2_radial_97_3805" cx="0" cy="0" r="1" gradientUnits="userSpaceOnUse" gradientTransform="translate(512.5 511.563) rotate(90) scale(156.5)">
<stop stop-color="#DB6507"/>
<stop offset="1" stop-color="#A62905"/>
</radialGradient>
<radialGradient id="paint3_radial_97_3805" cx="0" cy="0" r="1" gradientUnits="userSpaceOnUse" gradientTransform="translate(512.502 507.634) scale(77.4998 58.2239)">
<stop stop-color="#FF3D00"/>
<stop offset="1" stop-color="#8B2202"/>
</radialGradient>
<linearGradient id="paint4_linear_97_3805" x1="511.187" y1="0.621705" x2="511.187" y2="230.598" gradientUnits="userSpaceOnUse">
<stop stop-color="#DB6507"/>
<stop offset="1" stop-color="#A62905"/>
</linearGradient>
<linearGradient id="paint5_linear_97_3805" x1="508.188" y1="1022.51" x2="508.188" y2="792.53" gradientUnits="userSpaceOnUse">
<stop stop-color="#DB6507"/>
<stop offset="1" stop-color="#A62905"/>
</linearGradient>
</defs>
</svg>
