<svg width="1158" height="367" viewBox="0 0 1158 367" fill="none" xmlns="http://www.w3.org/2000/svg">
<path d="M93.6249 277.502L50.5564 249.769L53.1551 245.734L57.8992 247.094L58.1022 246.778C57.5805 245.372 57.3491 243.469 57.408 241.068C57.494 238.626 58.2679 236.27 59.7296 234C61.435 231.351 63.7197 229.373 66.5837 228.066C69.4056 226.731 72.4974 226.224 75.8588 226.545C79.2474 226.824 82.5181 227.978 85.671 230.009C88.8239 232.039 91.2283 234.539 92.8844 237.508C94.5676 240.435 95.4065 243.473 95.4011 246.622C95.3957 249.77 94.5403 252.669 92.835 255.317C91.4273 257.503 89.6506 259.154 87.5048 260.27C85.3169 261.359 83.5229 261.928 82.1229 261.978L81.9199 262.294L97.1168 272.079L93.6249 277.502ZM87.5243 252.343C88.6341 250.62 89.1658 248.732 89.1192 246.68C89.0998 244.586 88.499 242.564 87.3168 240.613C86.1196 238.593 84.407 236.866 82.179 235.432C79.9509 233.997 77.6909 233.166 75.3989 232.939C73.1339 232.67 71.0442 232.96 69.1299 233.808C67.2427 234.615 65.7441 235.88 64.6343 237.604C63.5244 239.327 62.9792 241.236 62.9987 243.33C63.0181 245.424 63.6054 247.467 64.7605 249.46C65.9427 251.411 67.6478 253.103 69.8759 254.538C72.1039 255.973 74.3714 256.838 76.6784 257.134C78.9705 257.361 81.0737 257.051 82.988 256.202C84.9023 255.353 86.4144 254.067 87.5243 252.343Z" fill="#CC5407"/>
<path d="M117.715 187.708C119.034 188.781 119.94 189.647 120.434 190.308L102.348 212.527C105.301 214.286 108.196 214.966 111.034 214.569C113.872 214.171 116.269 212.77 118.226 210.366C120.815 207.186 121.473 203.724 120.2 199.981L124.414 194.804C126.022 197.66 126.744 200.891 126.581 204.498C126.379 208.073 125.11 211.295 122.774 214.164C120.659 216.762 118.059 218.611 114.973 219.709C111.887 220.807 108.676 221.03 105.339 220.377C102.002 219.724 98.8797 218.214 95.9714 215.847C93.1406 213.543 91.0827 210.804 89.7976 207.63C88.5126 204.457 88.0788 201.267 88.4964 198.061C88.9068 194.785 90.1378 191.886 92.1895 189.366C94.2411 186.845 96.7432 185.078 99.6958 184.065C102.648 183.051 105.703 182.862 108.86 183.498C112.049 184.095 115.001 185.498 117.715 187.708ZM96.7846 193.106C94.9539 195.355 94.1585 197.996 94.3983 201.028C94.631 203.989 95.8885 206.721 98.171 209.224L112.517 191.599C109.705 189.826 106.838 189.072 103.915 189.336C101.024 189.562 98.6469 190.818 96.7846 193.106Z" fill="#CC5407"/>
<path d="M143.011 190.452C142.372 191.085 141.591 191.647 140.669 192.137L136.606 188.034L137.565 187.084C138.951 185.712 139.595 184.23 139.497 182.639C139.399 180.976 138.436 179.08 136.608 176.95L120.844 158.151L139.231 139.945L165.774 166.752L161.137 171.343L138.868 148.853L129.275 158.352L141.718 173.157C144.565 176.529 146.052 179.701 146.179 182.672C146.341 185.607 145.285 188.2 143.011 190.452Z" fill="#CC5407"/>
<path d="M166.678 115.359C168.902 113.578 171.264 112.487 173.762 112.088C176.229 111.649 178.635 111.933 180.978 112.939C183.329 113.874 185.395 115.454 187.177 117.679L202.133 136.353L198.328 139.4L194.32 136.556L194.028 136.791C194.122 138.509 193.788 140.41 193.023 142.496C192.259 144.581 190.804 146.483 188.658 148.202C186.706 149.765 184.677 150.75 182.568 151.157C180.46 151.565 178.465 151.433 176.583 150.762C174.669 150.053 173.056 148.879 171.743 147.239C170.274 145.405 169.524 143.348 169.491 141.068C169.466 138.718 170.137 136.355 171.502 133.98C172.906 131.575 174.896 129.34 177.472 127.277L182.975 122.87L181.896 121.524C180.302 119.533 178.451 118.422 176.342 118.189C174.242 117.885 172.255 118.484 170.381 119.984C168.625 121.39 167.599 122.949 167.303 124.659C167.008 126.369 167.286 128.036 168.138 129.66L163.045 133.739C161.896 131.905 161.212 129.89 160.992 127.696C160.811 125.471 161.196 123.273 162.148 121.101C163.099 118.93 164.609 117.016 166.678 115.359ZM185.914 143.097C188.334 141.159 189.722 138.894 190.08 136.301C190.407 133.669 189.71 131.28 187.991 129.134L186.21 126.909L181.058 131.035C178.326 133.223 176.578 135.36 175.814 137.445C175.05 139.53 175.309 141.373 176.59 142.973C177.716 144.378 179.11 145.119 180.773 145.196C182.405 145.235 184.119 144.535 185.914 143.097Z" fill="#CC5407"/>
<path d="M218.81 100.97L243.917 108.093L236.998 112.587L213.325 105.606L223.539 121.33L218.13 124.844L197.579 93.2075L202.988 89.6939L212.671 104.6L215.504 81.5636L221.983 77.3554L218.81 100.97Z" fill="#CC5407"/>
<path d="M270.025 94.9825C267.09 96.4914 263.989 97.1301 260.721 96.8985C257.475 96.5996 254.433 95.4933 251.594 93.5797C248.732 91.6217 246.466 89.0196 244.797 85.7736C243.128 82.5275 242.342 79.1932 242.437 75.7707C242.533 72.3482 243.415 69.2523 245.083 66.483C246.773 63.6464 249.086 61.4736 252.02 59.9647C254.6 58.6387 257.243 58.0387 259.95 58.1648C262.702 58.268 265.27 58.9436 267.654 60.1914C270.039 61.4392 272.036 63.0827 273.647 65.1219L267.91 68.0711C266.168 66.2123 264.142 65.0052 261.832 64.4498C259.544 63.827 257.199 64.1329 254.798 65.3675C252.931 66.3277 251.459 67.7307 250.384 69.5765C249.309 71.4222 248.751 73.5082 248.711 75.8343C248.714 78.1376 249.322 80.4676 250.533 82.8243C251.745 85.1811 253.298 87.0532 255.192 88.4407C257.108 89.7609 259.106 90.5323 261.189 90.7548C263.315 90.9545 265.335 90.5628 267.247 89.5798C269.648 88.3452 271.272 86.6386 272.12 84.4599C272.989 82.2139 273.175 79.8415 272.677 77.3425L278.414 74.3933C279.135 76.8897 279.309 79.4706 278.937 82.1359C278.564 84.8011 277.619 87.2828 276.102 89.5808C274.629 91.8559 272.604 93.6565 270.025 94.9825Z" fill="#CC5407"/>
<path d="M842.499 90.1448L837.027 86.7301L856.999 54.7253L883.532 71.2823L863.56 103.287L858.088 99.8725L874.844 73.0215L859.255 63.2938L842.499 90.1448Z" fill="#CC5407"/>
<path d="M872.275 125.52L903.198 84.6811L907.025 87.5787L905.308 92.2059L905.607 92.4322C907.049 92.0189 908.965 91.9326 911.354 92.1736C913.782 92.4447 916.073 93.3952 918.226 95.0251C920.737 96.9266 922.536 99.3549 923.622 102.31C924.739 105.225 925.01 108.346 924.434 111.674C923.899 115.031 922.499 118.205 920.236 121.195C917.972 124.184 915.297 126.392 912.21 127.818C909.164 129.274 906.071 129.88 902.932 129.635C899.793 129.391 896.968 128.318 894.456 126.417C892.384 124.847 890.872 122.95 889.923 120.726C889.003 118.461 888.571 116.629 888.628 115.23L888.329 115.003L877.418 129.413L872.275 125.52ZM897.825 121.347C899.459 122.584 901.301 123.258 903.351 123.367C905.44 123.507 907.502 123.061 909.537 122.031C911.642 120.99 913.494 119.414 915.093 117.301C916.693 115.188 917.693 112.998 918.094 110.73C918.534 108.492 918.404 106.386 917.703 104.413C917.041 102.47 915.894 100.879 914.259 99.642C912.625 98.4045 910.763 97.7159 908.674 97.5764C906.584 97.4368 904.502 97.8672 902.428 98.8677C900.393 99.8984 898.576 101.47 896.976 103.583C895.376 105.696 894.341 107.891 893.871 110.169C893.471 112.437 893.621 114.558 894.322 116.531C895.023 118.504 896.19 120.109 897.825 121.347Z" fill="#CC5407"/>
<path d="M934.041 144.632L967.589 137.741L971.805 141.577L946.415 169.48L941.7 165.189L960.326 144.72L926.778 151.611L922.562 147.775L947.952 119.873L952.667 124.163L934.041 144.632Z" fill="#CC5407"/>
<path d="M970.782 195.862C968.48 193.36 967.005 190.538 966.357 187.398C965.779 184.26 966.218 180.934 967.673 177.42C969.128 173.907 971.714 170.44 975.43 167.02C981.758 161.197 987.862 157.788 993.742 156.793C999.622 155.799 1005.32 157.521 1010.83 161.961C1014.84 165.206 1017.97 167.689 1020.23 169.411L1015.76 173.525L1009.85 168.98L1006.92 166.682C1003.02 163.548 999.324 162.12 995.844 162.401C992.402 162.647 989.058 163.924 985.813 166.231L986.067 166.506C987.851 166.156 989.932 166.313 992.31 166.978C994.689 167.643 996.877 169.061 998.875 171.231C1000.91 173.439 1002.2 176.022 1002.75 178.982C1003.33 181.908 1003.09 184.888 1002 187.922C1000.96 190.992 999.108 193.746 996.459 196.184C993.773 198.656 990.84 200.268 987.66 201.021C984.55 201.776 981.492 201.702 978.486 200.799C975.551 199.899 972.983 198.253 970.782 195.862ZM975.253 191.748C976.641 193.256 978.278 194.297 980.165 194.871C982.089 195.411 984.089 195.405 986.164 194.855C988.239 194.304 990.215 193.165 992.091 191.438C993.968 189.711 995.266 187.837 995.987 185.814C996.745 183.758 996.916 181.766 996.501 179.838C996.122 177.876 995.239 176.141 993.85 174.632C992.462 173.124 990.789 172.081 988.832 171.504C986.945 170.931 984.945 170.936 982.833 171.521C980.758 172.072 978.782 173.21 976.906 174.937C975.029 176.664 973.731 178.539 973.01 180.561C972.289 182.584 972.118 184.576 972.496 186.538C972.946 188.503 973.864 190.239 975.253 191.748Z" fill="#CC5407"/>
<path d="M1023.27 218.647C1025.62 221.755 1026.61 224.959 1026.23 228.261C1025.92 231.573 1024.31 234.332 1021.4 236.538C1018.49 238.744 1015.38 239.566 1012.07 239.004C1008.83 238.452 1006.03 236.622 1003.67 233.515L994.648 221.624L1024.7 198.824L1028.6 203.963L1018.15 211.895L1023.27 218.647ZM1014.77 248.154L1044.83 225.354L1048.73 230.493L1018.67 253.293L1014.77 248.154ZM1007.95 229.606C1009.31 231.399 1010.83 232.446 1012.5 232.747C1014.2 233.087 1015.87 232.638 1017.5 231.399C1019.14 230.16 1020.02 228.675 1020.15 226.945C1020.35 225.223 1019.77 223.467 1018.41 221.674L1013.6 215.34L1003.15 223.273L1007.95 229.606Z" fill="#CC5407"/>
<path d="M1027.5 267.712C1027.02 266.948 1026.65 266.061 1026.38 265.054L1031.28 262.007L1032 263.154C1033.02 264.811 1034.33 265.769 1035.9 266.028C1037.54 266.303 1039.6 265.787 1042.09 264.48L1063.93 253.304L1077.58 275.287L1045.53 295.186L1042.09 289.642L1068.97 272.948L1061.85 261.478L1044.65 270.307C1040.72 272.331 1037.3 273.073 1034.38 272.535C1031.48 272.038 1029.19 270.431 1027.5 267.712Z" fill="#CC5407"/>
<path d="M1084 314.69C1085.79 318.158 1086.21 321.486 1085.26 324.672C1084.35 327.835 1082.28 330.251 1079.03 331.92C1075.79 333.589 1072.59 333.882 1069.45 332.8C1066.35 331.694 1063.91 329.407 1062.13 325.939L1055.06 312.199L1088.61 294.948L1091.56 300.684L1079.89 306.686L1084 314.69ZM1066.99 322.765C1068.02 324.766 1069.33 326.059 1070.92 326.645C1072.54 327.275 1074.26 327.121 1076.08 326.184C1077.91 325.247 1079.03 323.937 1079.46 322.255C1079.96 320.595 1079.69 318.764 1078.66 316.763L1074.82 309.293L1063.15 315.294L1066.99 322.765Z" fill="#CC5407"/>
</svg>
